<?xml version="1.0" encoding="UTF-8" standalone="no"?>
<!-- Created with Inkscape (http://www.inkscape.org/) -->

<svg
   width="188.66087mm"
   height="40.908642mm"
   viewBox="0 0 188.66087 40.908642"
   version="1.1"
   id="svg5"
   xml:space="preserve"
   inkscape:version="1.2.2 (732a01da63, 2022-12-09)"
   sodipodi:docname="reverbAudio.svg"
   xmlns:inkscape="http://www.inkscape.org/namespaces/inkscape"
   xmlns:sodipodi="http://sodipodi.sourceforge.net/DTD/sodipodi-0.dtd"
   xmlns="http://www.w3.org/2000/svg"
   xmlns:svg="http://www.w3.org/2000/svg"><sodipodi:namedview
     id="namedview7"
     pagecolor="#ffffff"
     bordercolor="#666666"
     borderopacity="1.0"
     inkscape:showpageshadow="2"
     inkscape:pageopacity="0.0"
     inkscape:pagecheckerboard="0"
     inkscape:deskcolor="#d1d1d1"
     inkscape:document-units="mm"
     showgrid="false"
     inkscape:zoom="0.46769781"
     inkscape:cx="397.69269"
     inkscape:cy="562.32891"
     inkscape:current-layer="layer1" /><defs
     id="defs2"><filter
       style="color-interpolation-filters:sRGB"
       id="filter207915"
       inkscape:label="filter0"><feColorMatrix
         id="feColorMatrix207917"
         values="1"
         type="saturate" /></filter><filter
       style="color-interpolation-filters:sRGB"
       inkscape:label="Lightness-Contrast"
       id="filter208403"
       x="0"
       y="0"
       width="1"
       height="1"><feColorMatrix
         values="0.9924 0 0 -0.119743 0.0038 0 0.9924 0 -0.119743 0.0038 0 0 0.9924 -0.119743 0.0038 0 0 0 1 0"
         id="feColorMatrix208401" /></filter></defs><g
     inkscape:label="Layer 1"
     inkscape:groupmode="layer"
     id="layer1"><g
       id="g621919"
       transform="translate(-14.433966,-178.19579)"><path
         style="fill:#d2a7fe;stroke-width:0.352778"
         d="m 32.861451,218.54625 c -3.041391,-1.50101 -2.979246,-6.30072 0.09715,-7.50347 0.53861,-0.21058 1.645467,-0.55287 2.459682,-0.76065 1.652902,-0.42181 2.929332,-1.75758 2.929332,-3.06552 0,-2.45726 1.866752,-4.40422 4.649414,-4.84918 3.231522,-0.51675 4.629347,-4.03548 2.463496,-6.20133 -0.696944,-0.69695 -1.527379,-1.07988 -2.734028,-1.26075 -2.373199,-0.35571 -3.866864,-1.84929 -4.22275,-4.2225 -0.322747,-2.15223 -1.599613,-3.54633 -3.542635,-3.86789 -2.890942,-0.47844 -4.370849,-2.01475 -4.37329,-4.53997 -0.0011,-1.12298 0.249083,-1.61483 1.413726,-2.77947 1.32774,-1.32774 1.5144,-1.40384 3.025425,-1.23353 2.157987,0.24324 3.512673,1.54911 4.009307,3.86483 0.205613,0.95873 0.544427,2.0619 0.752926,2.45148 0.433762,0.81049 2.350703,1.70694 3.650082,1.70694 1.339865,0 3.313392,1.92167 3.560075,3.46653 0.490583,3.0723 2.028927,4.64736 4.539022,4.64736 1.237079,0 2.955728,1.58713 3.42893,3.16654 0.344138,1.14862 0.305512,1.55369 -0.258212,2.70803 -0.702208,1.43791 -1.968645,2.23877 -4.648497,2.93958 -1.738503,0.45464 -2.675396,1.67444 -3.04069,3.95884 -0.324901,2.03183 -2.042693,3.6695 -4.186178,3.99093 -2.161871,0.3242 -3.317314,1.48024 -3.638289,3.64016 -0.184721,1.24305 -0.566279,1.96749 -1.562938,2.96745 -1.478457,1.48334 -2.876498,1.71061 -4.771063,0.77559 z m -8.205225,-8.04382 c -1.237458,-0.68669 -2.17869,-2.36341 -2.181284,-3.88578 -0.0032,-1.86715 1.976932,-3.88902 4.141719,-4.22906 0.893026,-0.14028 1.945585,-0.63507 2.605745,-1.22492 2.318363,-2.07146 0.983466,-5.70792 -2.295174,-6.2524 -3.007216,-0.4994 -4.454614,-1.97966 -4.454614,-4.55575 0,-0.93986 0.304982,-1.59021 1.207615,-2.57516 1.089562,-1.18891 1.382034,-1.31773 2.991827,-1.31773 1.527944,0 1.942553,0.15834 2.886635,1.10242 0.750544,0.75054 1.203526,1.6436 1.419173,2.7979 0.441527,2.36338 1.11744,3.23522 2.870407,3.70244 3.812835,1.01624 5.02851,2.18737 5.02851,4.84425 0,1.32375 -0.182323,1.70901 -1.288521,2.72277 -0.895259,0.82044 -1.78064,1.25463 -2.900947,1.42263 -2.038831,0.30575 -3.258666,1.4788 -3.585826,3.4483 -0.1351,0.8133 -0.467677,1.91261 -0.73906,2.4429 -0.920978,1.79963 -3.835847,2.59508 -5.706205,1.55719 z m 120.886724,-3.37398 -0.83283,-0.67624 2.58468,-7.79227 c 1.42158,-4.28575 2.82198,-8.02957 3.112,-8.3196 0.64071,-0.6407 2.93966,-0.69349 3.76042,-0.0864 0.58291,0.43119 5.53595,14.61891 5.53595,15.85742 0,0.34027 -0.40715,0.88546 -0.90479,1.21152 -0.85654,0.56122 -0.93883,0.55695 -1.54299,-0.0801 -0.351,-0.3701 -1.53606,-3.49072 -2.63348,-6.93471 -1.0974,-3.444 -2.12166,-6.26181 -2.27612,-6.26181 -0.15447,0 -1.19129,2.85583 -2.30405,6.34629 -1.85233,5.8103 -2.5822,7.41204 -3.37746,7.41204 -0.15867,0 -0.66327,-0.3043 -1.12133,-0.67623 z m -86.216332,-0.47783 c -0.116054,-0.46239 -0.160991,-3.70173 -0.09987,-7.19854 0.08283,-4.73815 0.234485,-6.50616 0.595309,-6.94011 0.415876,-0.50015 1.346126,-0.58229 6.594913,-0.58229 5.829264,0 6.153125,0.0366 7.030829,0.79375 1.149474,0.99165 1.618118,2.98454 1.249775,5.31466 -0.280839,1.77659 -1.336939,3.13174 -3.38987,4.34976 -0.635296,0.37693 -0.575077,0.49513 0.898659,1.76389 3.434296,2.95663 3.491403,3.30017 0.548633,3.30017 -1.828602,0 -1.975806,-0.0765 -4.749479,-2.46945 -1.834659,-1.5828 -3.167715,-2.46944 -3.712763,-2.46944 -0.971815,0 -1.435781,-0.97842 -1.099439,-2.31852 0.208227,-0.82964 0.317323,-0.85648 3.481137,-0.85648 4.125612,0 4.922005,-0.43302 4.764747,-2.59072 l -0.106864,-1.46623 h -4.233333 -4.233333 l -0.176389,5.99722 -0.176389,5.99723 -1.487636,0.10791 c -1.315494,0.0954 -1.512055,0.0106 -1.698642,-0.73281 z m 18.33397,-0.38463 c -1.209393,-1.2094 -1.212966,-1.2227 -1.21165,-4.51145 0.0021,-5.41725 1.302332,-6.53682 7.230625,-6.22627 4.013288,0.21023 5.468055,1.36753 5.468055,4.34995 0,2.45111 -2.43634,4.01622 -6.284997,4.03749 -2.037274,0.0113 -2.887225,-0.4884 -2.887225,-1.69733 0,-1.48814 0.596776,-1.82203 3.256626,-1.82203 1.884278,0 2.457235,-0.12319 2.626684,-0.56477 0.119197,-0.31062 -0.0048,-0.70507 -0.275653,-0.87654 -0.62151,-0.39354 -4.92385,-0.40987 -5.536872,-0.021 -0.321857,0.20416 -0.426928,1.01685 -0.352778,2.72862 l 0.105604,2.43787 2.822222,0.17639 2.822223,0.17639 v 1.41111 1.41111 l -3.284947,0.10172 -3.284947,0.10172 z m 13.339114,0.79575 c -0.3135,-0.32454 -0.440973,-2.0099 -0.440973,-5.83023 0,-5.12628 0.03365,-5.38441 0.731016,-5.60574 0.402061,-0.12761 1.116436,-0.13528 1.5875,-0.017 0.841393,0.21117 0.856484,0.28285 0.856484,4.06797 0,2.26272 0.149959,3.9457 0.363326,4.07757 0.56291,0.34789 3.29818,-1.41662 4.365833,-2.81639 0.52746,-0.69153 1.353937,-2.11996 1.836622,-3.17427 0.51076,-1.11566 1.17584,-2.0116 1.59109,-2.14339 0.97815,-0.31046 2.42646,0.0985 2.42646,0.68507 0,0.26487 -0.64028,1.76084 -1.42286,3.32437 -1.59793,3.19258 -3.756444,5.62676 -6.008204,6.77552 -1.842967,0.94021 -5.245671,1.31976 -5.886294,0.65657 z m 15.582308,-0.26779 c -1.57246,-0.96929 -2.00682,-2.33424 -1.86077,-5.84728 0.11855,-2.85159 0.1844,-3.06585 1.2783,-4.15963 l 1.15331,-1.15319 h 3.84791 c 3.3543,0 3.97566,0.0948 4.84391,0.73925 2.21407,1.64332 2.16239,5.2481 -0.0941,6.56236 -1.21532,0.70785 -4.8767,1.20561 -6.27909,0.85363 -1.0676,-0.26795 -1.52446,-1.5598 -0.93869,-2.65433 0.34687,-0.64812 0.71718,-0.73841 3.02861,-0.73841 2.34862,0 2.63342,-0.0722 2.63342,-0.66781 0,-0.3673 -0.25111,-0.76417 -0.55802,-0.88195 -0.99635,-0.38233 -4.93041,-0.22903 -5.36865,0.2092 -0.57519,0.57519 -0.54996,4.32407 0.0324,4.80735 0.25063,0.208 1.56032,0.42587 2.91042,0.48417 l 2.45473,0.10599 v 1.41111 1.41111 l -2.99861,0.0941 c -2.44069,0.0766 -3.20075,-0.0305 -4.08505,-0.57564 z m 12.45092,0.43956 c -0.44194,-0.44193 -0.27616,-8.35736 0.19419,-9.2726 0.89808,-1.7475 2.18722,-2.31768 5.5367,-2.44888 3.61444,-0.14157 4.60047,0.21233 4.60047,1.65118 0,1.56303 -0.5607,1.82203 -3.9444,1.82203 -3.63473,0 -3.41512,-0.30532 -3.55252,4.93889 l -0.0878,3.35139 -1.24733,0.10498 c -0.68603,0.0577 -1.36072,-0.008 -1.4993,-0.14699 z m 13.23298,-0.48864 c -0.63543,-0.38742 -1.31355,-1.12056 -1.50693,-1.62921 -0.20163,-0.53031 -0.31074,-3.72803 -0.25579,-7.49636 l 0.0958,-6.57156 h 1.41111 1.41111 l 0.0966,2.29305 c 0.12676,3.00924 0.26745,3.39053 0.98593,2.67205 0.70843,-0.70844 4.64077,-0.75557 6.24895,-0.0749 2.09997,0.88882 2.53307,1.72546 2.66785,5.15353 0.20839,5.30045 -0.88299,6.36128 -6.54222,6.35912 -2.83273,-0.001 -3.66576,-0.12854 -4.61242,-0.70572 z m 7.48012,-3.02233 c 0.33392,-0.33392 0.55437,-1.16414 0.55437,-2.08781 0,-2.56118 -0.10158,-2.64949 -3.04743,-2.64949 -2.00271,0 -2.66696,-0.12455 -2.82222,-0.52917 -0.47663,-1.24207 -0.83313,-0.34713 -0.83313,2.09147 0,3.36224 0.32992,3.72937 3.35139,3.72937 1.56841,0 2.40932,-0.16667 2.79702,-0.55437 z m 23.22257,3.36642 c -0.43534,-0.17502 -1.10943,-0.83965 -1.49799,-1.47695 -0.60952,-0.9997 -0.70665,-1.77916 -0.70778,-5.67982 -0.001,-4.90046 0.26412,-5.88584 1.58618,-5.88584 1.31853,0 1.5875,0.98415 1.5875,5.80871 0,3.90519 0.0748,4.47327 0.61736,4.68548 1.01977,0.39891 3.21295,0.2804 3.69455,-0.19963 0.29936,-0.2984 0.50979,-1.99999 0.62698,-5.07014 0.14872,-3.89639 0.27319,-4.68187 0.79375,-5.00911 0.44915,-0.28235 0.78556,-0.28215 1.23472,7.1e-4 0.53112,0.3345 0.63114,1.07199 0.71602,5.27973 0.1096,5.43338 -0.15933,6.59107 -1.71833,7.39726 -1.10675,0.57233 -5.6383,0.67009 -6.93296,0.14959 z m 11.87688,-0.66825 c -1.02545,-1.02545 -1.03119,-1.05485 -1.03119,-5.27507 0,-2.33413 0.17227,-4.62198 0.38283,-5.08411 0.64307,-1.41138 2.10377,-2.01518 4.87507,-2.01518 h 2.50321 v -1.5623 c 0,-1.68546 0.65556,-2.67103 1.77667,-2.67103 0.36737,0 0.83228,0.30706 1.03314,0.68236 0.54154,1.01189 0.48888,15.98617 -0.0582,16.53319 -0.55369,0.5537 -1.92694,0.54312 -2.28987,-0.0176 -0.15697,-0.24253 -0.36478,-2.66347 -0.46179,-5.37986 l -0.17639,-4.93889 -1.80991,-0.10516 c -2.6273,-0.15267 -2.95389,0.30157 -2.94719,4.09911 0.003,1.68389 0.13399,3.26424 0.29116,3.51191 0.15718,0.24766 1.10342,0.54713 2.10277,0.66549 1.36432,0.16158 1.87033,0.3832 2.03104,0.88955 0.38383,1.20935 -0.45554,1.69883 -2.91321,1.69883 -2.0463,0 -2.38146,-0.10448 -3.30819,-1.0312 z m 12.23572,0.47318 c -0.42053,-1.09587 -0.2373,-11.97771 0.2092,-12.42421 0.64809,-0.64809 1.97826,-0.50371 2.38647,0.25903 0.20559,0.38414 0.36519,3.0154 0.36519,6.02042 0,3.00502 -0.1596,5.63628 -0.36519,6.02041 -0.4526,0.84571 -2.28518,0.93349 -2.59567,0.12435 z m 6.9179,0.007 c -1.42434,-0.99765 -1.84037,-2.34714 -1.84037,-5.96962 0,-5.81557 1.10291,-7.05417 6.08012,-6.82814 2.64916,0.12031 2.86134,0.19096 3.83025,1.27536 1.01255,1.13323 1.02574,1.20283 1.02574,5.41104 v 4.26305 l -1.19944,1.19944 c -1.17318,1.17317 -1.26418,1.19945 -4.15484,1.19945 -2.10715,0 -3.18101,-0.15803 -3.74146,-0.55058 z m 5.9075,-2.49297 c 0.1043,-0.10396 0.24376,-1.65841 0.30992,-3.45432 0.13836,-3.75558 -0.21316,-4.43825 -2.28535,-4.43825 -2.40889,0 -2.59744,0.30903 -2.59744,4.25712 0,3.3229 0.0459,3.5461 0.79375,3.86177 0.76267,0.32192 3.38676,0.16476 3.77912,-0.22632 z m -48.84043,-1.05775 c -0.83145,-0.83144 -0.53658,-2.30352 0.5872,-2.93143 0.86337,-0.4824 1.00979,-0.47089 1.6757,0.13175 0.93647,0.84749 0.96274,2.51808 0.0473,3.00801 -0.96424,0.51605 -1.64744,0.45444 -2.3102,-0.20833 z m -135.096736,-1.5701 c -2.243988,-1.97024 -1.965959,-5.11878 0.5896,-6.67692 1.400223,-0.85373 2.425227,-0.88626 4.023726,-0.12773 2.072953,0.98369 2.845936,3.58332 1.715484,5.76937 -0.75386,1.4578 -1.877755,2.12057 -3.596013,2.12057 -1.168245,0 -1.768006,-0.23819 -2.732797,-1.08529 z m 171.099216,-8.99408 c -0.3049,-0.3049 -0.55436,-0.83018 -0.55436,-1.1673 0,-1.9175 2.80481,-2.65178 3.58538,-0.93862 0.84036,1.84439 -1.59824,3.5387 -3.03102,2.10592 z"
         id="path621937" /><path
         style="fill:#a7d0fd;stroke-width:0.352778"
         d="m 32.267767,217.35862 c -0.977861,-0.87371 -1.152094,-1.26955 -1.152094,-2.61741 0,-2.10424 1.046336,-3.23423 3.47761,-3.75564 2.982943,-0.63973 3.741723,-1.46526 4.265383,-4.64065 0.243635,-1.47738 1.653279,-3.05264 2.983787,-3.33435 3.61,-0.76434 4.619054,-1.73032 4.619054,-4.42184 0,-1.97034 -1.378959,-3.33023 -3.735007,-3.68338 -2.373199,-0.35571 -3.866864,-1.84929 -4.22275,-4.2225 -0.322747,-2.15223 -1.599613,-3.54633 -3.542635,-3.86789 -2.890942,-0.47844 -4.370849,-2.01475 -4.37329,-4.53997 -0.0011,-1.12298 0.249083,-1.61483 1.413726,-2.77947 1.32774,-1.32774 1.5144,-1.40384 3.025425,-1.23353 2.157987,0.24324 3.512673,1.54911 4.009307,3.86483 0.205613,0.95873 0.544427,2.0619 0.752926,2.45148 0.433762,0.81049 2.350703,1.70694 3.650082,1.70694 1.339865,0 3.313392,1.92167 3.560075,3.46653 0.490583,3.0723 2.028927,4.64736 4.539022,4.64736 1.182836,0 2.904011,1.5267 3.393596,3.01015 0.876197,2.65491 -0.81927,4.65579 -4.458424,5.26154 -1.88402,0.3136 -3.158243,1.65346 -3.645492,3.83328 -0.647323,2.89592 -1.502075,3.71037 -4.520149,4.30702 -1.889132,0.37348 -3.146055,1.69825 -3.594298,3.78835 -0.54619,2.54679 -1.784429,3.78855 -3.777828,3.78855 -1.176496,0 -1.773901,-0.2305 -2.668026,-1.0294 z m -7.530207,-7.39687 c -2.231147,-1.36055 -2.465849,-4.50661 -0.46199,-6.19275 0.590372,-0.49676 1.418411,-0.90669 1.840087,-0.91095 0.421676,-0.004 1.417362,-0.30325 2.212636,-0.66442 1.212049,-0.55045 1.505941,-0.89301 1.816781,-2.11762 0.203956,-0.80352 0.285805,-1.81422 0.181888,-2.246 -0.328115,-1.36333 -1.838499,-2.66047 -3.39973,-2.91974 -3.007216,-0.4994 -4.454614,-1.97966 -4.454614,-4.55575 0,-0.93986 0.304982,-1.59021 1.207615,-2.57516 1.089562,-1.18891 1.382034,-1.31773 2.991827,-1.31773 1.527944,0 1.942553,0.15834 2.886635,1.10242 0.750544,0.75054 1.203526,1.6436 1.419173,2.7979 0.442519,2.36869 1.116702,3.23639 2.870407,3.69432 2.65066,0.69213 3.932504,1.50046 4.623919,2.91584 1.33282,2.72837 -0.374074,5.18449 -4.002909,5.75996 -2.02714,0.32147 -3.429053,1.67124 -3.737186,3.5982 -0.583196,3.64711 -3.284919,5.28381 -5.994539,3.63148 z m 35.319078,-3.30359 c -0.243409,-0.76093 -0.635349,-6.64475 -0.677926,-10.1771 -0.02896,-2.40229 0.09986,-3.5554 0.44335,-3.96875 0.415999,-0.50059 1.344563,-0.58263 6.594913,-0.58263 5.829264,0 6.153125,0.0366 7.030829,0.79375 1.883696,1.62505 1.866865,6.1384 -0.0291,7.80562 -0.565411,0.4972 -1.543957,1.07992 -2.174547,1.29495 -0.63059,0.21503 -1.146528,0.51437 -1.146528,0.6652 0,0.15084 0.873125,1.10002 1.940278,2.10928 1.067153,1.00927 1.940278,1.9848 1.940278,2.16784 0,0.18305 -0.617767,0.33281 -1.372817,0.33281 -1.186046,0 -1.770574,-0.33597 -4.296481,-2.46945 -1.810233,-1.52899 -3.239706,-2.46944 -3.753534,-2.46944 -0.970485,0 -1.327983,-0.69578 -1.009495,-1.96474 0.223541,-0.89066 0.273209,-0.90339 3.17046,-0.81268 3.872678,0.12125 4.882222,-0.4394 4.723497,-2.6232 l -0.107471,-1.47855 h -4.232515 -4.232514 l -0.431469,5.45133 c -0.23731,2.99823 -0.510508,5.65729 -0.607109,5.90902 -0.224589,0.58528 -1.586117,0.59813 -1.772095,0.0167 z m 18.618356,-0.23913 c -1.529243,-0.94319 -1.746356,-1.4904 -1.981529,-4.99421 -0.255238,-3.80275 0.309069,-5.00342 2.64848,-5.63517 2.118134,-0.57199 6.912518,-0.2759 8.094302,0.49989 2.188613,1.43671 2.101145,4.8529 -0.159928,6.24645 -0.919508,0.56672 -1.647546,0.67741 -3.949534,0.60049 l -2.822222,-0.0943 v -1.05833 -1.05833 l 2.794381,-0.17639 c 2.904285,-0.18333 3.488122,-0.54627 2.487834,-1.54655 -0.636778,-0.63678 -4.883792,-0.81141 -5.789916,-0.23807 -0.562334,0.35581 -1.067678,3.80926 -0.708398,4.8411 0.183126,0.52595 0.716452,0.68084 2.837472,0.82407 l 2.61196,0.17639 v 1.05834 1.05833 l -2.469444,0.0948 c -1.953811,0.075 -2.704144,-0.05 -3.593458,-0.59849 z m 12.819958,0.15481 c -0.395266,-0.39526 -0.583445,-1.18364 -0.583445,-2.44432 0,-1.02349 -0.101879,-3.29619 -0.226402,-5.05044 -0.218419,-3.07712 -0.198868,-3.19829 0.55463,-3.43744 0.429563,-0.13634 1.183548,-0.14686 1.675518,-0.0234 l 0.894489,0.2245 -0.253379,4.21707 -0.253379,4.21708 h 1.059163 c 1.699655,0 4.26558,-2.56854 5.509496,-5.5151 1.102097,-2.61064 1.701317,-3.30739 2.837147,-3.29895 1.53137,0.0114 1.78233,0.49538 1.13535,2.18949 -0.32567,0.85274 -0.82874,1.85867 -1.11794,2.23541 -0.2892,0.37674 -1.08449,1.43352 -1.76731,2.34839 -2.501868,3.35211 -7.951671,5.84996 -9.463938,4.33769 z m 15.416118,-0.15428 c -1.37643,-0.8393 -1.84335,-2.20327 -1.96859,-5.75069 -0.094,-2.66226 -0.0692,-2.75311 1.05706,-3.88055 l 1.15331,-1.15447 h 3.84791 c 4.37457,0 5.50995,0.48413 6.23204,2.65737 0.33316,1.0027 0.28011,1.39407 -0.35277,2.60245 -0.98572,1.88206 -1.96494,2.31348 -5.26518,2.3197 l -2.75638,0.005 0.11055,-1.14653 0.11054,-1.14652 2.61809,-0.17639 c 2.72723,-0.18374 3.29456,-0.56335 2.31135,-1.54655 -0.41489,-0.41489 -1.2334,-0.57012 -3.00623,-0.57012 -2.18356,0 -2.49374,0.088 -2.99201,0.84842 -0.3861,0.58926 -0.52329,1.47827 -0.44911,2.91041 l 0.1068,2.06201 2.60948,0.17638 c 2.85277,0.19284 3.79215,0.81539 2.88312,1.91071 -0.70037,0.84389 -4.79776,0.76468 -6.24998,-0.12083 z m 12.65975,0.25199 c -0.21086,-0.25407 -0.4339,-2.30823 -0.49606,-4.56857 -0.10165,-3.69629 -0.0426,-4.18583 0.59038,-4.89576 1.10494,-1.23924 2.75458,-1.74976 5.65406,-1.74976 3.18295,0 4.04509,0.36355 4.04509,1.70575 0,1.55814 -0.56362,1.82203 -3.8915,1.82203 -3.71434,0 -3.82168,0.12925 -3.95479,4.7625 -0.0838,2.91604 -0.15128,3.18358 -0.82764,3.28022 -0.40503,0.0579 -0.90883,-0.10251 -1.11954,-0.35641 z m 13.43227,-0.0888 c -1.98943,-0.86526 -2.26573,-1.94308 -2.33882,-9.12367 l -0.0653,-6.41137 h 1.41111 1.41111 l 0.0966,2.29305 c 0.12676,3.00924 0.26745,3.39053 0.98593,2.67205 0.70843,-0.70844 4.64077,-0.75557 6.24895,-0.0749 2.15448,0.9119 2.55886,1.72288 2.44236,4.89822 -0.13267,3.61624 -0.72556,5.07133 -2.34147,5.7465 -1.57391,0.65762 -6.33859,0.6577 -7.8505,1.2e-4 z m 7.22675,-2.37643 c 0.56758,-0.56758 0.51957,-3.83005 -0.0677,-4.60375 -0.36881,-0.48585 -1.00147,-0.61736 -2.96986,-0.61736 -2.01076,0 -2.56865,-0.12048 -2.84507,-0.61442 -0.52987,-0.94684 -0.72908,-0.43963 -0.97639,2.48602 -0.30444,3.60154 -0.14321,3.77284 3.55088,3.77284 1.77341,0 3.04795,-0.16309 3.30819,-0.42333 z m 5.48033,2.33895 c -0.11689,-0.30461 0.13651,-1.75507 0.56311,-3.22325 0.42659,-1.46817 0.83411,-3.13152 0.90559,-3.69633 0.21156,-1.67166 2.66454,-8.72199 3.23204,-9.28949 0.59562,-0.59562 2.66794,-0.69485 3.64055,-0.17433 0.63022,0.33729 3.1528,7.13307 3.40271,9.16684 0.0602,0.49017 0.50503,2.2406 0.98843,3.88983 0.74794,2.55171 0.80629,3.07152 0.39155,3.48783 -0.87247,0.87576 -1.47077,0.16008 -2.66776,-3.19113 -0.64736,-1.81242 -1.36831,-3.61281 -1.60211,-4.00086 -0.2338,-0.38806 -0.77364,-1.77712 -1.19964,-3.08681 -0.426,-1.30969 -0.88911,-2.38125 -1.02912,-2.38125 -0.14002,0 -0.62193,1.15094 -1.07091,2.55764 -0.44898,1.4067 -0.94678,2.72096 -1.10621,2.92058 -0.15944,0.19962 -0.79884,1.78712 -1.4209,3.52778 -0.62206,1.74066 -1.28621,3.36327 -1.47587,3.60581 -0.47799,0.61123 -1.29644,0.55169 -1.55146,-0.11286 z m 17.63675,0.0396 c -0.61531,-0.26765 -1.28065,-0.78916 -1.47852,-1.15889 -0.19788,-0.36974 -0.55831,-2.67367 -0.80096,-5.11985 -0.50507,-5.09163 -0.26592,-6.25977 1.28157,-6.25977 1.46225,0 1.7385,1.14787 1.36862,5.68679 -0.41186,5.05403 -0.2667,5.3898 2.3909,5.53027 3.07007,0.16227 3.20012,-0.0862 3.05939,-5.84543 -0.10306,-4.21778 -0.0467,-4.7972 0.50123,-5.14853 0.45649,-0.29272 0.77822,-0.29256 1.23472,6.4e-4 0.54483,0.34994 0.60527,0.92995 0.51441,4.93708 -0.12624,5.56775 -0.44721,6.73099 -2.04101,7.39692 -1.49725,0.6256 -4.57049,0.61579 -6.03035,-0.0192 z m 12.66954,-0.0128 c -0.63207,-0.2747 -1.28372,-0.8638 -1.44812,-1.30911 -0.5099,-1.38115 -0.78555,-8.29204 -0.36736,-9.20988 0.63924,-1.40299 2.10477,-2.00672 4.87121,-2.00672 h 2.50321 v -1.5623 c 0,-1.68546 0.65556,-2.67103 1.77667,-2.67103 0.36737,0 0.83228,0.30706 1.03314,0.68236 0.47138,0.88079 0.41324,7.5787 -0.10891,12.5468 -0.36884,3.50942 -0.47533,3.88056 -1.1134,3.88056 -0.63851,0 -0.7293,-0.31848 -0.95544,-3.35139 -0.13743,-1.84326 -0.37684,-4.14514 -0.53202,-5.11528 l -0.28214,-1.76389 -1.76104,-0.0917 c -0.96856,-0.0504 -1.97725,0.0493 -2.24152,0.22163 -0.98041,0.63934 -1.53786,7.23561 -0.68368,8.0898 0.23284,0.23283 1.11094,0.42333 1.95135,0.42333 1.07562,0 1.59219,0.16721 1.74474,0.56477 0.45913,1.19648 -2.23153,1.60869 -4.38669,0.67204 z m 11.75825,0.21588 c -0.11906,-0.19263 -0.40123,-2.88836 -0.62704,-5.9905 -0.44673,-6.13687 -0.32503,-6.75109 1.33768,-6.75109 1.33225,0 1.69003,1.1409 1.37563,4.38665 -0.15159,1.56491 -0.37129,4.11377 -0.48824,5.66413 -0.16873,2.2369 -0.33328,2.84178 -0.79709,2.92995 -0.32146,0.0611 -0.68188,-0.0465 -0.80094,-0.23914 z m 6.96223,-0.0269 c -1.33891,-0.57064 -1.85147,-1.85022 -2.23388,-5.57664 -0.58518,-5.70241 0.464,-7.14312 5.1944,-7.13287 2.64618,0.006 3.75632,0.42085 4.76677,1.78243 0.61827,0.83312 0.64663,1.2379 0.35392,5.05193 -0.29217,3.80708 -0.39497,4.22302 -1.2567,5.08475 -0.81981,0.8198 -1.26181,0.94997 -3.49492,1.02921 -1.40602,0.0499 -2.90435,-0.0576 -3.32959,-0.23881 z m 5.33409,-1.98018 c 0.96511,-0.96511 0.52711,-7.26575 -0.55265,-7.94986 -0.71787,-0.45482 -2.91197,-0.37725 -3.55663,0.12575 -0.37417,0.29194 -0.70102,1.49594 -0.96714,3.56258 -0.34801,2.70255 -0.32746,3.23533 0.15309,3.96875 0.47268,0.7214 0.83812,0.84714 2.46202,0.84714 1.26322,0 2.09408,-0.18713 2.46131,-0.55436 z m -48.56994,-1.59056 c -1.53919,-0.8965 -0.0735,-3.28294 1.49931,-2.44119 0.90984,0.48693 0.92389,1.97499 0.0232,2.45703 -0.8121,0.43463 -0.74793,0.43529 -1.52249,-0.0158 z M 16.036482,201.57918 c -2.338456,-1.66384 -2.078123,-4.88995 0.522552,-6.47559 1.400223,-0.85373 2.425227,-0.88626 4.023726,-0.12773 1.438383,0.68256 2.242636,2.06755 2.242636,3.86201 0,1.03226 -0.25853,1.54261 -1.259841,2.48696 -1.641649,1.54828 -3.584869,1.63767 -5.529073,0.25435 z m 171.032168,-8.79275 c -0.3049,-0.3049 -0.55436,-0.83018 -0.55436,-1.1673 0,-1.9175 2.80481,-2.65178 3.58538,-0.93862 0.84036,1.84439 -1.59824,3.5387 -3.03102,2.10592 z"
         id="path621935" /><path
         style="fill:#9f9ffd;stroke-width:0.352778"
         d="m 32.267767,217.35862 c -0.977861,-0.87371 -1.152094,-1.26955 -1.152094,-2.61741 0,-2.10424 1.046336,-3.23423 3.47761,-3.75564 2.982943,-0.63973 3.741723,-1.46526 4.265383,-4.64065 0.243635,-1.47738 1.653279,-3.05264 2.983787,-3.33435 3.452531,-0.731 4.971832,-2.06391 4.971832,-4.36186 0,-2.36762 -1.212021,-3.57704 -4.233334,-4.22426 -1.84127,-0.39443 -3.527777,-2.01679 -3.527777,-3.39361 0,-1.38448 -0.907942,-3.21968 -1.921428,-3.88375 -0.507115,-0.33227 -1.670097,-0.74389 -2.584404,-0.9147 -2.077601,-0.38813 -3.254087,-1.51601 -3.476546,-3.33291 -0.36536,-2.984 2.567447,-5.13656 5.258532,-3.85956 1.318146,0.6255 2.370041,2.29747 2.372387,3.77086 0.0032,2.05139 1.692564,3.49999 4.651721,3.98893 1.591236,0.26292 2.982493,1.78983 3.317572,3.64105 0.130665,0.7219 0.447488,1.72769 0.704052,2.2351 0.510875,1.01038 2.420853,2.07529 3.725873,2.07736 2.56454,0.004 4.386351,2.91654 3.360364,5.37208 -0.593591,1.42066 -1.782734,2.1799 -3.987737,2.54608 -1.883985,0.31287 -3.158147,1.65247 -3.645492,3.83272 -0.647323,2.89592 -1.502075,3.71037 -4.520149,4.30702 -1.889132,0.37348 -3.146055,1.69825 -3.594298,3.78835 -0.54619,2.54679 -1.784429,3.78855 -3.777828,3.78855 -1.176496,0 -1.773901,-0.2305 -2.668026,-1.0294 z m -7.530207,-7.39687 c -2.231147,-1.36055 -2.465849,-4.50661 -0.46199,-6.19275 0.590372,-0.49676 1.375511,-0.9032 1.744754,-0.9032 1.239723,0 3.460496,-1.10991 4.064149,-2.0312 0.812905,-1.24065 0.765539,-3.44286 -0.09918,-4.61121 -0.625777,-0.84551 -1.673623,-1.32223 -4.67954,-2.12897 -0.479067,-0.12858 -1.246051,-0.7873 -1.704409,-1.46384 -1.391945,-2.05451 -0.576751,-4.44346 1.869974,-5.48001 2.291538,-0.9708 4.524586,0.56981 5.071846,3.49915 0.392101,2.09882 1.799633,3.66372 3.544718,3.94103 2.196332,0.34901 3.408737,1.0824 4.06072,2.45636 1.267297,2.67063 -0.320957,5.18324 -3.585875,5.67284 -2.111859,0.3167 -3.515499,1.6396 -3.830629,3.61032 -0.583196,3.64711 -3.284919,5.28381 -5.994539,3.63148 z m 35.305962,-3.21529 c -0.446275,-0.72208 -0.272782,-13.3937 0.191029,-13.95256 0.339288,-0.40882 1.589225,-0.51144 6.229234,-0.51144 h 5.804775 l 1.069206,1.06921 c 1.02979,1.02979 1.064341,1.16552 0.937274,3.68184 -0.149151,2.95362 -0.856598,4.08548 -2.994576,4.79107 -0.650564,0.21471 -1.182846,0.51379 -1.182846,0.66462 0,0.15084 0.873125,1.10002 1.940278,2.10928 1.067153,1.00927 1.940278,1.9848 1.940278,2.16784 0,0.18305 -0.617767,0.33281 -1.372817,0.33281 -1.185002,0 -1.769629,-0.33517 -4.273303,-2.44987 -1.650972,-1.39447 -3.301203,-2.4963 -3.830659,-2.55764 -0.774383,-0.0897 -0.930166,-0.28502 -0.930166,-1.1661 v -1.05834 l 3.404408,-0.17639 c 3.824065,-0.19813 4.689232,-0.64588 4.983103,-2.5789 0.335445,-2.2065 0.01994,-2.35998 -4.851326,-2.35998 -3.117642,0 -4.454779,0.12667 -4.648673,0.4404 -0.149701,0.24222 -0.243459,2.26628 -0.208351,4.49792 0.08513,5.41133 -0.207952,7.19901 -1.203512,7.34088 -0.418253,0.0596 -0.869766,-0.0685 -1.003356,-0.28465 z m 18.631472,-0.32743 c -1.610015,-0.99301 -1.874598,-1.71914 -1.874598,-5.14468 0,-2.89951 0.05054,-3.09948 1.031198,-4.08014 1.016472,-1.01647 1.087374,-1.03119 4.966024,-1.03119 3.878651,0 3.949552,0.0147 4.966025,1.03119 0.783029,0.78303 1.031197,1.35844 1.031197,2.39095 0,2.71183 -1.611767,3.72441 -5.669692,3.56194 l -2.620585,-0.10492 v -1.05833 -1.05833 l 2.818818,-0.17639 c 2.351165,-0.14713 2.838845,-0.28162 2.939545,-0.8107 0.240845,-1.26537 -0.580961,-1.65875 -3.465308,-1.65875 -1.820104,0 -2.863748,0.15413 -3.117994,0.46048 -0.471082,0.56762 -0.632323,5.10266 -0.196886,5.53765 0.173948,0.17377 1.427519,0.36372 2.785714,0.4221 l 2.469444,0.10616 v 1.05834 1.05833 l -2.469444,0.0948 c -1.953811,0.075 -2.704144,-0.05 -3.593458,-0.59849 z m 12.804034,0.13889 c -0.500634,-0.50064 -0.572573,-1.29535 -0.489053,-5.40275 l 0.09792,-4.81576 h 1.058333 1.058334 l 0.09975,3.96875 0.09975,3.96875 h 1.008626 c 1.516176,0 4.245773,-2.64303 5.816392,-5.63194 1.16507,-2.21714 1.4151,-2.48195 2.34333,-2.48195 1.34471,0 1.34365,0.58978 -0.006,3.44303 -1.80552,3.81651 -5.356765,6.68001 -9.049014,7.29653 -1.116831,0.18648 -1.586474,0.10707 -2.038202,-0.34466 z m 15.441762,-0.13245 c -1.36056,-0.82964 -1.89817,-2.29765 -1.89817,-5.18322 0,-4.27766 0.99847,-5.07923 6.32691,-5.07923 3.37159,0 3.59183,0.0465 4.63632,0.9798 1.29799,1.15975 1.52325,2.97922 0.5523,4.46107 -0.8324,1.2704 -1.90585,1.61468 -5.03446,1.61468 h -2.64522 l 0.11055,-1.14653 0.11054,-1.14652 2.64251,-0.17639 c 2.18121,-0.1456 2.66357,-0.28712 2.76316,-0.8107 0.23581,-1.23977 -0.58881,-1.65875 -3.26477,-1.65875 -3.52624,0 -3.78826,0.2533 -3.65728,3.53554 l 0.10527,2.63808 2.60948,0.17638 c 2.85277,0.19284 3.79215,0.81539 2.88312,1.91071 -0.69748,0.84041 -4.79739,0.76491 -6.24026,-0.11492 z m 12.64979,0.26384 c -0.57819,-0.57819 -0.59029,-7.3341 -0.0154,-8.59587 0.67723,-1.48638 1.98687,-1.93042 5.69348,-1.93042 3.13098,0 3.33975,0.0459 3.53053,0.77539 0.35608,1.36166 -0.32954,1.69405 -3.49425,1.69405 -1.96027,0 -3.02935,0.14641 -3.21999,0.44097 -0.15697,0.24254 -0.36478,2.10785 -0.4618,4.14514 -0.16063,3.37331 -0.23978,3.71325 -0.88606,3.80588 -0.39032,0.0559 -0.90626,-0.0949 -1.14653,-0.33514 z m 13.43251,-0.10653 c -2.01423,-0.87604 -2.25592,-1.87971 -2.14764,-8.91869 l 0.0963,-6.26357 h 1.05833 1.05833 l 0.0968,6.14782 c 0.0599,3.80393 0.24449,6.32578 0.48417,6.61458 0.50804,0.61215 5.97563,0.64823 6.58043,0.0434 0.55806,-0.55806 0.54506,-4.21927 -0.0176,-4.96553 -0.32165,-0.42658 -1.10915,-0.61187 -2.91041,-0.68478 l -2.46945,-0.1 v -1.05833 -1.05833 l 2.62059,-0.10492 c 4.47674,-0.17924 5.66969,0.88072 5.66969,5.03762 0,3.05782 -0.67859,4.64602 -2.26903,5.31055 -1.57391,0.65762 -6.33859,0.6577 -7.8505,1.2e-4 z m 12.70733,-0.0368 c -0.22885,-0.59636 1.10135,-5.29944 3.33579,-11.79403 1.19218,-3.46521 1.53089,-4.10547 2.3222,-4.38963 0.58405,-0.20974 1.28496,-0.20748 1.89657,0.006 1.06524,0.37201 1.90683,2.41389 4.71085,11.42949 1.17943,3.79215 1.29961,4.46906 0.86973,4.89894 -0.27433,0.27433 -0.72716,0.41115 -1.00628,0.30405 -0.52964,-0.20325 -2.47701,-5.37205 -3.93273,-10.43845 -1.23402,-4.29482 -1.81801,-4.57277 -2.69226,-1.28135 -0.70132,2.64032 -3.56936,10.93434 -3.93417,11.37709 -0.50267,0.61007 -1.31481,0.55201 -1.5697,-0.11222 z m 17.6365,0.0389 c -0.61531,-0.26765 -1.27365,-0.77738 -1.46298,-1.13272 -0.95774,-1.79751 -0.89089,-10.44285 0.0836,-10.81681 1.16283,-0.44623 1.40712,0.37273 1.51934,5.09349 0.0646,2.71557 0.27372,4.86534 0.49988,5.13785 0.56305,0.67844 3.98543,0.61579 4.68701,-0.0858 0.44625,-0.44625 0.55436,-1.43543 0.55436,-5.07208 0,-3.58537 0.10921,-4.60835 0.52917,-4.95688 0.42218,-0.35038 0.63616,-0.35038 1.05833,0 0.41758,0.34656 0.52917,1.34886 0.52917,4.75305 0,5.15448 -0.3535,6.42474 -1.97669,7.10295 -1.48927,0.62226 -4.56481,0.61049 -6.02123,-0.023 z m 12.66954,-0.0128 c -1.52925,-0.66463 -1.8494,-1.67373 -1.8494,-5.8293 0,-5.30883 0.53423,-5.96862 5.10858,-6.30932 l 2.82892,-0.2107 0.10727,-1.87048 c 0.10963,-1.91162 0.75588,-2.69915 1.55729,-1.89774 0.47137,0.47137 0.73617,8.52551 0.42915,13.05304 -0.16365,2.41329 -0.36073,3.34048 -0.74106,3.48643 -0.28497,0.10935 -0.65802,0.0587 -0.829,-0.1126 -0.17098,-0.17129 -0.38786,-2.49228 -0.48194,-5.15776 -0.0941,-2.66549 -0.27039,-5.00705 -0.39179,-5.20348 -0.1214,-0.19642 -1.15485,-0.35713 -2.29657,-0.35713 -2.85319,0 -3.17418,0.50025 -3.17418,4.94683 0,2.15752 0.15301,3.53173 0.42333,3.80206 0.23284,0.23283 1.11094,0.42333 1.95135,0.42333 1.07562,0 1.59219,0.16721 1.74474,0.56477 0.45913,1.19648 -2.23153,1.60869 -4.38669,0.67204 z m 11.6455,-0.0642 c -0.42148,-1.03783 -0.31983,-11.31011 0.11625,-11.74814 0.21009,-0.21104 0.62698,-0.28968 0.92642,-0.17478 0.71228,0.27333 1.03673,4.4268 0.70168,8.98271 -0.20542,2.79332 -0.3486,3.36719 -0.86462,3.46565 -0.34789,0.0664 -0.73273,-0.16347 -0.87973,-0.52544 z m 7.07498,0.25322 c -1.40218,-0.59761 -1.95077,-1.94174 -2.13228,-5.22439 -0.20475,-3.70299 0.15099,-5.26109 1.41698,-6.2063 1.26933,-0.94769 4.58765,-1.19349 6.32308,-0.46838 2.15463,0.90026 2.47813,1.75977 2.34073,6.21905 -0.11391,3.69681 -0.16734,3.93467 -1.09114,4.85763 -0.85703,0.85625 -1.27226,0.98116 -3.52778,1.0612 -1.40602,0.0499 -2.90435,-0.0576 -3.32959,-0.23881 z m 5.33409,-1.98018 c 0.80008,-0.80008 0.80008,-7.26341 0,-8.06349 -0.68242,-0.68243 -4.13021,-0.76656 -4.64711,-0.1134 -0.19194,0.24253 -0.43583,1.97297 -0.54199,3.84542 -0.24797,4.37372 0.0392,4.88583 2.73966,4.88583 1.25243,0 2.08307,-0.188 2.44944,-0.55437 z m -48.56994,-1.59056 c -1.53919,-0.8965 -0.0735,-3.28294 1.49931,-2.44119 0.90984,0.48693 0.92389,1.97499 0.0232,2.45703 -0.8121,0.43463 -0.74793,0.43529 -1.52249,-0.0158 z M 16.551876,201.96244 c -0.958416,-0.67131 -1.840835,-2.30302 -1.839051,-3.40065 0.004,-2.44611 2.99817,-4.40656 5.284036,-3.45972 2.865213,1.18681 3.365511,4.81708 0.935162,6.78574 -0.946192,0.76645 -3.334345,0.80713 -4.380147,0.0746 z m 170.869554,-9.52879 c -1.06915,-1.06915 -0.28205,-2.42794 1.2783,-2.20674 0.93447,0.13247 1.29471,1.43918 0.62066,2.25136 -0.54929,0.66185 -1.20797,0.64637 -1.89896,-0.0446 z"
         id="path621933" /><path
         style="fill:#60cbfd;stroke-width:0.352778"
         d="m 32.415968,217.50711 c -1.272347,-1.07061 -1.635814,-2.3305 -1.121719,-3.88822 0.455685,-1.38073 1.493686,-2.14186 3.385821,-2.48269 2.748423,-0.49507 4.089661,-1.90602 4.538503,-4.7744 0.267127,-1.70712 1.40704,-2.68118 3.717594,-3.17671 2.646316,-0.56753 4.230895,-2.13383 4.230895,-4.18209 0,-2.78625 -1.417778,-4.35003 -4.341375,-4.78845 -2.018696,-0.30272 -3.347473,-1.53232 -3.641241,-3.36946 -0.441152,-2.7588 -2.035415,-4.23435 -5.101936,-4.72202 -3.837441,-0.61027 -4.133438,-6.14561 -0.388626,-7.26758 1.155432,-0.34618 1.579861,-0.31648 2.635444,0.18443 1.318146,0.6255 2.370041,2.29747 2.372387,3.77086 0.0032,2.05139 1.692564,3.49999 4.651721,3.98893 1.765536,0.29172 2.943447,1.75199 3.244628,4.02237 0.290858,2.1926 1.667944,3.7352 3.640882,4.07848 3.07801,0.53557 4.124783,1.54393 4.124783,3.97344 0,0.9723 -0.258311,1.48977 -1.134456,2.2726 -0.623947,0.5575 -1.533923,1.01364 -2.022164,1.01364 -1.347752,0 -3.213555,0.89858 -3.834942,1.84694 -0.305431,0.46615 -0.693264,1.58588 -0.861853,2.48829 -0.437586,2.34229 -1.204197,3.32813 -2.957799,3.80367 -3.730896,1.01174 -4.364778,1.58933 -4.902401,4.46709 -0.435754,2.33249 -1.750342,3.62179 -3.69282,3.62179 -1.078902,0 -1.785522,-0.24494 -2.541326,-0.88091 z m -8.206598,-8.26418 c -1.160799,-1.1608 -1.346515,-2.62741 -0.532127,-4.20227 0.569343,-1.10098 1.571664,-1.67675 3.459296,-1.98712 1.674675,-0.27536 3.289855,-1.63228 3.806556,-3.1979 0.852683,-2.58366 -1.061734,-5.20161 -4.141478,-5.66345 -4.126625,-0.61882 -5.076114,-5.48268 -1.372387,-7.03019 2.378564,-0.99383 4.514013,0.54258 4.968737,3.5749 0.331088,2.20785 1.946333,3.89287 4.054879,4.23004 2.79536,0.447 4.318959,2.54601 3.546655,4.88612 -0.410416,1.24357 -1.652403,2.04949 -4.084582,2.65046 -2.161087,0.53398 -3.68119,2.52521 -3.68119,4.8221 0,0.50902 -0.438836,1.32495 -1.031197,1.91731 -1.452102,1.4521 -3.541059,1.4521 -4.993162,0 z m 35.907096,-2.38821 c -0.341718,-0.57256 -0.169556,-13.69295 0.185423,-14.13129 0.259511,-0.32044 1.943725,-0.44097 6.161896,-0.44097 h 5.804775 l 1.078374,1.07838 c 1.013718,1.01371 1.067287,1.20066 0.893449,3.11779 -0.254653,2.80836 -0.970241,4.02814 -2.893469,4.93216 -0.881141,0.41419 -1.602074,0.89835 -1.602074,1.07592 0,0.17757 0.943483,1.08958 2.096629,2.02667 2.506148,2.0366 2.66215,2.58575 0.734547,2.58575 -1.250301,0 -1.71528,-0.28474 -4.293404,-2.62917 -1.590188,-1.44604 -3.221405,-2.67636 -3.624926,-2.73403 -0.463539,-0.0662 -0.733679,-0.36464 -0.733679,-0.81041 0,-0.64564 0.294936,-0.72078 3.473073,-0.88481 3.106483,-0.16033 3.544009,-0.26686 4.145138,-1.00922 0.737895,-0.91127 0.876269,-2.5333 0.306878,-3.59722 -0.330771,-0.61805 -0.775571,-0.68236 -4.719306,-0.68236 -3.177349,0 -4.458624,0.12592 -4.740807,0.46593 -0.234777,0.28289 -0.424988,2.67366 -0.48417,6.08542 -0.09455,5.45083 -0.120294,5.62273 -0.857935,5.72785 -0.418253,0.0596 -0.83694,-0.0198 -0.930412,-0.17639 z m 18.527219,-0.45473 c -1.553845,-0.958 -1.819783,-1.8454 -1.583994,-5.28551 0.160458,-2.34103 0.358211,-3.10322 0.998192,-3.84724 0.773243,-0.89895 0.92081,-0.92783 4.739735,-0.92783 3.922109,0 3.946056,0.005 4.831648,1.03469 0.7516,0.87378 0.862009,1.28307 0.709973,2.63191 -0.118643,1.05261 -0.43771,1.80588 -0.935751,2.20917 -0.867343,0.70233 -3.083828,1.10889 -5.135036,0.94189 -1.239365,-0.1009 -1.411112,-0.22223 -1.411112,-0.99683 0,-0.84609 0.0998,-0.88625 2.454738,-0.98793 2.713249,-0.11715 3.366096,-0.44877 3.366096,-1.70983 0,-1.08683 -1.134036,-1.53557 -3.880556,-1.53557 -1.138904,0 -2.477946,0.15482 -2.975645,0.34404 -0.85888,0.32655 -0.90491,0.47689 -0.90491,2.95542 0,1.70367 0.15839,2.74282 0.455679,2.98955 0.250624,0.208 1.560312,0.42587 2.910417,0.48416 l 2.454737,0.10599 v 1.05834 1.05833 l -2.469444,0.0948 c -1.973976,0.0758 -2.701248,-0.0481 -3.624767,-0.61753 z m 12.801956,0.12454 c -0.510681,-0.51068 -0.581554,-0.99167 -0.400861,-2.72047 0.120727,-1.15505 0.219505,-3.34681 0.219505,-4.87057 0,-2.69288 0.02383,-2.77047 0.850731,-2.77047 0.840531,0 0.852166,0.0467 0.970138,3.89401 0.08732,2.8477 0.251524,3.9755 0.611096,4.1973 1.450672,0.89483 5.329633,-2.28925 7.02515,-5.76666 0.94512,-1.93839 1.2794,-2.32465 2.01178,-2.32465 0.48308,0 0.87609,0.19843 0.87336,0.44097 -0.0103,0.91329 -2.9278,5.79108 -4.320805,7.22392 -2.460159,2.53051 -6.586826,3.94989 -7.840094,2.69662 z m 15.614319,0.0247 c -0.5287,-0.28692 -1.12401,-0.82575 -1.32292,-1.19741 -0.54199,-1.01272 -0.44189,-5.8444 0.15046,-7.26209 0.68589,-1.64156 1.80728,-2.00739 5.72193,-1.86664 2.8509,0.1025 3.34355,0.21797 4.14514,0.97157 0.691,0.64962 0.90972,1.20324 0.90972,2.30274 0,2.60065 -1.59855,3.7147 -5.33667,3.7192 -1.74682,0.002 -2.5849,-0.58051 -2.2164,-1.54081 0.17577,-0.45804 0.74418,-0.57388 2.8159,-0.57388 2.2021,0 2.65085,-0.10311 2.9596,-0.68 0.86508,-1.61643 -0.53914,-2.495 -3.98774,-2.495 -3.17878,0 -3.7597,0.5105 -3.7597,3.30396 0,3.0014 0.33517,3.3528 3.31457,3.47524 2.67777,0.11004 3.61255,0.7434 2.7072,1.83428 -0.613,0.73863 -4.74527,0.7446 -6.10109,0.009 z m 12.53312,0.16259 c -0.54755,-0.54755 -0.18675,-7.55102 0.45456,-8.82341 0.68026,-1.34965 2.06981,-1.77037 5.45799,-1.65253 2.91236,0.10129 2.97671,0.12259 2.97671,0.98547 0,0.86381 -0.0665,0.88557 -3.23544,1.05833 -1.77949,0.097 -3.36699,0.31044 -3.52778,0.47428 -0.16078,0.16384 -0.29233,2.06884 -0.29233,4.23334 0,3.67416 -0.0471,3.94219 -0.70968,4.03715 -0.39032,0.0559 -0.89613,-0.0847 -1.12403,-0.31264 z m 13.41496,-0.12695 c -0.61532,-0.26765 -1.27042,-0.77738 -1.45578,-1.13272 -0.18537,-0.35535 -0.3963,-3.66233 -0.46875,-7.34886 l -0.13172,-6.70277 h 1.05833 1.05833 v 6.02806 c 0,4.58919 0.11557,6.16806 0.48417,6.61458 0.63375,0.76772 6.08438,0.8567 6.70454,0.10945 0.21777,-0.26239 0.49474,-1.42228 0.61548,-2.57752 0.29917,-2.8623 -0.15027,-3.29541 -3.41966,-3.29541 h -2.44425 v -1.05833 -1.05833 h 2.48696 c 4.32183,0 5.27415,1.06472 5.27415,5.89667 0,3.07323 -0.34131,3.86491 -1.95734,4.54014 -1.53053,0.63949 -6.32105,0.63031 -7.80446,-0.015 z m 12.68658,-0.0801 c -0.12545,-0.3269 0.22018,-1.79534 0.76806,-3.26319 0.54788,-1.46786 1.62028,-4.81196 2.38309,-7.43133 0.76282,-2.61938 1.64314,-4.96094 1.95627,-5.20347 0.83312,-0.6453 2.45388,-0.53823 3.20376,0.21165 0.35895,0.35895 0.99905,1.98613 1.42247,3.61597 0.42341,1.62984 1.48522,4.93594 2.35957,7.34688 1.39425,3.84445 1.52636,4.44691 1.07434,4.89893 -0.89643,0.89643 -1.56267,0.18945 -2.33001,-2.47252 -1.97199,-6.84101 -3.61077,-11.21966 -4.19915,-11.21966 -0.44843,0 -2.22579,4.65115 -3.59716,9.41339 -0.60435,2.09867 -1.26088,4.01421 -1.45895,4.25675 -0.50998,0.62447 -1.3137,0.54654 -1.58229,-0.15341 z m 17.6523,0.0801 c -0.61531,-0.26765 -1.29,-0.80663 -1.4993,-1.19772 -0.5623,-1.05066 -0.50898,-10.51252 0.0604,-10.72191 1.16788,-0.42949 1.32291,0.11235 1.32291,4.62369 0,5.56814 0.2332,6.04887 2.93042,6.04092 1.00765,-0.003 2.03342,-0.1332 2.2795,-0.28939 0.79264,-0.50311 1.16084,-2.61687 1.10539,-6.34593 -0.0527,-3.54485 0.23139,-4.65152 1.06229,-4.138 0.4896,0.30259 0.52363,10.21052 0.0382,11.11758 -0.73078,1.36549 -5.02328,1.90104 -7.29981,0.91076 z m 12.58403,-0.10365 -1.23472,-0.61681 -0.0982,-4.64299 c -0.0936,-4.42649 -0.0598,-4.68759 0.72466,-5.59963 0.73597,-0.85561 1.13758,-0.98002 3.80239,-1.17785 l 2.9795,-0.2212 0.17639,-1.93722 c 0.13167,-1.44609 0.32687,-1.96575 0.76995,-2.04976 0.32646,-0.0619 0.73038,0.17486 0.8976,0.52611 0.16722,0.35126 0.21762,4.13115 0.112,8.39976 -0.18464,7.46191 -0.21925,7.76111 -0.8976,7.76111 -0.67163,0 -0.70589,-0.23748 -0.71243,-4.93889 -0.004,-2.71639 -0.13221,-5.13733 -0.28541,-5.37986 -0.17902,-0.28344 -1.15036,-0.44097 -2.71902,-0.44097 -2.22612,0 -2.49222,0.079 -3.02942,0.89881 -0.48975,0.74746 -0.55055,1.43937 -0.36107,4.1088 0.12531,1.76548 0.40611,3.42476 0.62399,3.68729 0.22339,0.26917 1.07442,0.47732 1.95151,0.47732 1.10071,0 1.61873,0.1651 1.7721,0.56477 0.48293,1.25848 -2.37337,1.62969 -4.4722,0.58121 z m 11.88905,0.39492 c -0.36915,-0.36915 -0.29918,-12.05058 0.0736,-12.28095 0.17652,-0.10909 0.54507,-0.11235 0.819,-0.007 0.40357,0.15486 0.49327,1.34205 0.47281,6.25779 -0.0216,5.18366 -0.10477,6.08203 -0.57162,6.17222 -0.3005,0.0581 -0.65769,-0.006 -0.79375,-0.14183 z m 6.93412,-0.10872 c -1.53025,-0.65416 -1.88983,-1.70351 -1.88983,-5.51498 0,-4.41173 0.40148,-5.70393 1.97668,-6.36209 2.41142,-1.00756 6.33228,-0.34035 7.16714,1.21961 0.21175,0.39565 0.38118,2.57687 0.38118,4.90726 0,4.04619 -0.0321,4.22517 -0.90427,5.04455 -0.75641,0.71061 -1.31882,0.86417 -3.43959,0.93917 -1.39442,0.0493 -2.87551,-0.0558 -3.29131,-0.23352 z m 5.27457,-1.87315 c 0.92117,-0.68101 1.27164,-6.59953 0.46381,-7.83244 -0.5276,-0.80522 -0.8195,-0.89881 -2.80329,-0.89881 -1.25192,0 -2.39837,0.18399 -2.6377,0.42333 -0.67893,0.67893 -0.56996,7.49353 0.13103,8.19452 0.67955,0.67955 3.97601,0.75668 4.84615,0.1134 z m -48.54212,-1.896 c -0.45037,-0.45038 -0.26201,-1.81629 0.2791,-2.02394 0.9428,-0.36178 1.63266,0.15743 1.51839,1.14278 -0.10535,0.90842 -1.22255,1.45609 -1.79749,0.88116 z M 16.934908,201.73795 c -1.080069,-0.52183 -1.973868,-2.53788 -1.692697,-3.81804 0.279381,-1.27202 2.043404,-2.81523 3.218048,-2.81523 3.228396,0 4.876112,3.77663 2.628384,6.02436 -1.102772,1.10277 -2.659278,1.33095 -4.153735,0.60891 z m 170.486522,-9.3043 c -1.06915,-1.06915 -0.28205,-2.42794 1.2783,-2.20674 0.93447,0.13247 1.29471,1.43918 0.62066,2.25136 -0.54929,0.66185 -1.20797,0.64637 -1.89896,-0.0446 z"
         id="path621931" /><path
         style="fill:#5e97fd;stroke-width:0.352778"
         d="m 32.415968,217.50711 c -1.272347,-1.07061 -1.635814,-2.3305 -1.121719,-3.88822 0.455685,-1.38073 1.493686,-2.14186 3.385821,-2.48269 2.748423,-0.49507 4.089661,-1.90602 4.538503,-4.7744 0.267127,-1.70712 1.40704,-2.68118 3.717594,-3.17671 2.646316,-0.56753 4.230895,-2.13383 4.230895,-4.18209 0,-2.78625 -1.417778,-4.35003 -4.341375,-4.78845 -1.999449,-0.29984 -3.322415,-1.50814 -3.607177,-3.29454 -0.478769,-3.00346 -2.258024,-4.98319 -4.481299,-4.98623 -0.564367,-7.8e-4 -1.439256,-0.42545 -2.108649,-1.02355 -2.895197,-2.58686 -0.09936,-6.99989 3.485709,-5.50195 1.310945,0.54775 1.7388,1.2423 2.258726,3.66662 0.451919,2.10722 1.785172,3.42795 3.777368,3.74186 2.97513,0.46879 3.988082,1.48067 4.515263,4.51049 0.300831,1.72894 1.844368,3.27248 3.573318,3.57331 3.07801,0.53557 4.124783,1.54393 4.124783,3.97344 0,0.9723 -0.258311,1.48977 -1.134456,2.2726 -0.623947,0.5575 -1.533923,1.01364 -2.022164,1.01364 -1.347752,0 -3.213555,0.89858 -3.834942,1.84694 -0.305431,0.46615 -0.693264,1.58588 -0.861853,2.48829 -0.437586,2.34229 -1.204197,3.32813 -2.957799,3.80367 -3.730896,1.01174 -4.364778,1.58933 -4.902401,4.46709 -0.435754,2.33249 -1.750342,3.62179 -3.69282,3.62179 -1.078902,0 -1.785522,-0.24494 -2.541326,-0.88091 z m -8.206598,-8.26418 c -1.160799,-1.1608 -1.346515,-2.62741 -0.532127,-4.20227 0.569343,-1.10098 1.571664,-1.67675 3.459296,-1.98712 1.674675,-0.27536 3.289855,-1.63228 3.806556,-3.1979 0.852683,-2.58366 -1.061734,-5.20161 -4.141478,-5.66345 -1.125568,-0.16879 -1.98209,-0.56688 -2.644156,-1.22895 -2.618831,-2.61883 0.202867,-6.80129 3.789837,-5.61748 1.425888,0.47058 2.112783,1.45374 2.462697,3.52486 0.354124,2.09605 2.006991,3.77077 4.042851,4.09632 2.79536,0.447 4.318959,2.54601 3.546655,4.88612 -0.410416,1.24357 -1.652403,2.04949 -4.084582,2.65046 -2.161087,0.53398 -3.68119,2.52521 -3.68119,4.8221 0,0.50902 -0.438836,1.32495 -1.031197,1.91731 -1.452102,1.4521 -3.541059,1.4521 -4.993162,0 z m 35.863658,-2.44872 c -0.117362,-0.1899 -0.141132,-3.31949 -0.05282,-6.95465 0.119295,-4.91054 0.278934,-6.68444 0.621072,-6.90144 0.754913,-0.4788 10.919418,-0.35633 11.892947,0.14329 1.082188,0.5554 1.906344,2.85226 1.607693,4.48053 -0.374082,2.03952 -1.114294,3.05882 -2.795005,3.84885 -0.881141,0.41419 -1.602074,0.89835 -1.602074,1.07592 0,0.17757 0.943483,1.08958 2.096629,2.02667 2.506148,2.0366 2.66215,2.58575 0.734547,2.58575 -1.250301,0 -1.71528,-0.28474 -4.293404,-2.62917 -1.590188,-1.44604 -3.221405,-2.67636 -3.624926,-2.73403 -0.463539,-0.0662 -0.733679,-0.36464 -0.733679,-0.81041 0,-0.64564 0.294936,-0.72078 3.473073,-0.88481 3.132179,-0.16166 3.540643,-0.2627 4.161518,-1.02945 0.523056,-0.64595 0.663324,-1.28088 0.583872,-2.64297 l -0.104574,-1.79277 h -4.938889 -4.938889 l -0.176389,6.17361 c -0.171136,5.98981 -0.19903,6.17684 -0.936851,6.28198 -0.418253,0.0596 -0.856488,-0.047 -0.973851,-0.2369 z m 18.570657,-0.39422 c -1.553845,-0.958 -1.819783,-1.8454 -1.583994,-5.28551 0.160458,-2.34103 0.358211,-3.10322 0.998192,-3.84724 0.773243,-0.89895 0.92081,-0.92783 4.739735,-0.92783 3.922109,0 3.946056,0.005 4.831648,1.03469 0.7516,0.87378 0.862009,1.28307 0.709973,2.63191 -0.118643,1.05261 -0.43771,1.80588 -0.935751,2.20917 -0.867343,0.70233 -3.083828,1.10889 -5.135036,0.94189 -1.239365,-0.1009 -1.411112,-0.22223 -1.411112,-0.99683 0,-0.84609 0.0998,-0.88625 2.454738,-0.98793 2.713249,-0.11715 3.366096,-0.44877 3.366096,-1.70983 0,-1.08683 -1.134036,-1.53557 -3.880556,-1.53557 -1.138904,0 -2.477946,0.15482 -2.975645,0.34404 -0.85888,0.32655 -0.90491,0.47689 -0.90491,2.95542 0,1.70367 0.15839,2.74282 0.455679,2.98955 0.250624,0.208 1.560312,0.42587 2.910417,0.48416 l 2.454737,0.10599 v 1.05834 1.05833 l -2.469444,0.0948 c -1.973976,0.0758 -2.701248,-0.0481 -3.624767,-0.61753 z m 12.801956,0.12454 c -0.510681,-0.51068 -0.581554,-0.99167 -0.400861,-2.72047 0.120727,-1.15505 0.219505,-3.34681 0.219505,-4.87057 0,-2.69288 0.02383,-2.77047 0.850731,-2.77047 0.840531,0 0.852166,0.0467 0.970138,3.89401 0.08732,2.8477 0.251524,3.9755 0.611096,4.1973 1.450672,0.89483 5.329633,-2.28925 7.02515,-5.76666 0.8144,-1.67029 1.32518,-2.32465 1.81457,-2.32465 0.37462,0 0.78159,0.16257 0.90439,0.36126 0.3491,0.56485 -2.54107,5.6478 -4.152843,7.30363 -2.4638,2.53114 -6.588852,3.94965 -7.841876,2.69662 z m 15.614319,0.0247 c -0.5287,-0.28692 -1.12401,-0.82575 -1.32292,-1.19741 -0.54199,-1.01272 -0.44189,-5.8444 0.15046,-7.26209 0.68589,-1.64156 1.80728,-2.00739 5.72193,-1.86664 2.8509,0.1025 3.34355,0.21797 4.14514,0.97157 0.691,0.64962 0.90972,1.20324 0.90972,2.30274 0,2.60065 -1.59855,3.7147 -5.33667,3.7192 -1.74682,0.002 -2.5849,-0.58051 -2.2164,-1.54081 0.17577,-0.45804 0.74418,-0.57388 2.8159,-0.57388 2.2021,0 2.65085,-0.10311 2.9596,-0.68 0.86508,-1.61643 -0.53914,-2.495 -3.98774,-2.495 -3.17878,0 -3.7597,0.5105 -3.7597,3.30396 0,3.0014 0.33517,3.3528 3.31457,3.47524 2.67777,0.11004 3.61255,0.7434 2.7072,1.83428 -0.613,0.73863 -4.74527,0.7446 -6.10109,0.009 z m 12.53312,0.16259 c -0.54755,-0.54755 -0.18675,-7.55102 0.45456,-8.82341 0.68026,-1.34965 2.06981,-1.77037 5.45799,-1.65253 2.91236,0.10129 2.97671,0.12259 2.97671,0.98547 0,0.86381 -0.0665,0.88557 -3.23544,1.05833 -1.77949,0.097 -3.36699,0.31044 -3.52778,0.47428 -0.16078,0.16384 -0.29233,2.06884 -0.29233,4.23334 0,3.67416 -0.0471,3.94219 -0.70968,4.03715 -0.39032,0.0559 -0.89613,-0.0847 -1.12403,-0.31264 z m 13.41496,-0.12695 c -1.78744,-0.77752 -1.905,-1.32524 -1.79966,-8.38511 0.0952,-6.38344 0.10394,-6.44756 0.88993,-6.55919 0.75609,-0.10738 0.79404,0.001 0.79976,2.29306 0.0172,6.88112 0.1902,9.55416 0.65455,10.11318 0.63484,0.76428 6.08666,0.85031 6.70454,0.10581 0.21777,-0.26239 0.49474,-1.42228 0.61548,-2.57752 0.29917,-2.86231 -0.15027,-3.29542 -3.41966,-3.29542 h -2.44425 v -1.05833 -1.05833 h 2.48696 c 4.32183,0 5.27415,1.06472 5.27415,5.89667 0,3.07323 -0.34131,3.86491 -1.95734,4.54014 -1.53053,0.63949 -6.32105,0.63031 -7.80446,-0.015 z m 12.69968,-0.046 c -0.23481,-0.6119 -0.26294,-0.51702 2.34442,-7.90645 0.99271,-2.8134 1.9635,-5.62935 2.1573,-6.25765 0.42737,-1.38547 1.42292,-1.98032 2.80593,-1.67656 0.84852,0.18637 1.12601,0.51972 1.56128,1.87557 0.95516,2.97531 2.56011,7.59266 3.6908,10.61827 0.9744,2.60738 1.04742,3.03542 0.59502,3.48783 -0.89604,0.89603 -1.5629,0.18954 -2.33357,-2.47224 -0.4103,-1.41713 -1.29269,-4.28401 -1.96086,-6.37084 -0.66818,-2.08684 -1.21487,-4.01209 -1.21487,-4.27834 0,-0.26626 -0.24485,-0.68731 -0.54411,-0.93568 -0.9541,-0.79183 -0.84412,-1.05858 -4.07796,9.89019 -0.60174,2.03729 -1.25612,3.9026 -1.45419,4.14514 -0.50039,0.61271 -1.31198,0.55104 -1.56919,-0.11925 z m 17.6392,0.046 c -1.7308,-0.75288 -1.91026,-1.43033 -1.80165,-6.80133 0.0928,-4.58733 0.13711,-4.85525 0.80374,-4.85525 0.66068,0 0.71677,0.29399 0.88194,4.62192 0.20952,5.48989 0.36154,5.78737 2.95361,5.77963 0.99489,-0.003 2.01023,-0.1332 2.25631,-0.28939 0.77609,-0.4926 1.14008,-2.57414 1.14008,-6.51972 0,-3.44855 0.0601,-3.80903 0.61736,-3.70214 0.54544,0.10462 0.6292,0.67276 0.71896,4.87656 0.0559,2.61698 0.0105,5.12579 -0.10075,5.57514 -0.40516,1.6359 -4.90881,2.4285 -7.4696,1.31457 z m 12.58403,-0.10365 -1.23472,-0.61681 -0.0981,-4.62302 c -0.12886,-6.0742 -0.005,-6.26066 4.2866,-6.4369 1.72145,-0.0707 3.16306,-0.30083 3.35833,-0.53612 0.18818,-0.22674 0.39274,-1.12351 0.45459,-1.99283 0.0619,-0.86932 0.2712,-1.54575 0.46523,-1.50317 0.57364,0.12586 0.90507,4.46774 0.80195,10.50592 -0.0918,5.37713 -0.12981,5.64445 -0.80195,5.64445 -0.67163,0 -0.70589,-0.23748 -0.71243,-4.93889 -0.004,-2.71639 -0.13221,-5.13733 -0.28541,-5.37986 -0.17902,-0.28344 -1.15036,-0.44097 -2.71902,-0.44097 -2.22612,0 -2.49222,0.079 -3.02942,0.89881 -0.48975,0.74746 -0.55055,1.43937 -0.36107,4.1088 0.12531,1.76548 0.40611,3.42476 0.62399,3.68729 0.22339,0.26917 1.07442,0.47732 1.95151,0.47732 1.10071,0 1.61873,0.1651 1.7721,0.56477 0.48293,1.25848 -2.37337,1.62969 -4.4722,0.58121 z m 11.80766,0.18885 c -0.10156,-0.26466 -0.14077,-3.01484 -0.0871,-6.11149 0.0929,-5.36259 0.13107,-5.63029 0.80308,-5.63029 0.67787,0 0.70556,0.23519 0.70556,5.99172 0,5.4296 -0.058,6.00295 -0.61843,6.11149 -0.34014,0.0659 -0.70152,-0.0968 -0.80308,-0.36143 z m 7.01551,0.0973 c -1.53025,-0.65416 -1.88983,-1.70351 -1.88983,-5.51498 0,-5.72499 0.57225,-6.50053 4.79661,-6.50053 2.40471,0 4.12931,0.61319 4.50925,1.6033 0.12052,0.31409 0.21914,2.43541 0.21914,4.71405 0,3.99033 -0.0333,4.17429 -0.90427,4.99251 -0.75641,0.71061 -1.31882,0.86417 -3.43959,0.93917 -1.39442,0.0493 -2.87551,-0.0558 -3.29131,-0.23352 z m 5.27457,-1.87315 c 0.92117,-0.68101 1.27164,-6.59953 0.46381,-7.83244 -0.5276,-0.80522 -0.8195,-0.89881 -2.80329,-0.89881 -1.25192,0 -2.39837,0.18399 -2.6377,0.42333 -0.67893,0.67893 -0.56996,7.49353 0.13103,8.19452 0.67955,0.67955 3.97601,0.75668 4.84615,0.1134 z m -48.54212,-1.896 c -0.45037,-0.45038 -0.26201,-1.81629 0.2791,-2.02394 0.9428,-0.36178 1.63266,0.15743 1.51839,1.14278 -0.10535,0.90842 -1.22255,1.45609 -1.79749,0.88116 z M 16.934908,201.73795 c -1.080069,-0.52183 -1.973868,-2.53788 -1.692697,-3.81804 0.279381,-1.27202 2.043404,-2.81523 3.218048,-2.81523 3.228396,0 4.876112,3.77663 2.628384,6.02436 -1.102772,1.10277 -2.659278,1.33095 -4.153735,0.60891 z m 170.687382,-9.57203 c -0.59944,-0.72228 -0.10766,-1.70574 0.78898,-1.57781 0.53384,0.0762 0.74885,0.35869 0.74885,0.98396 0,1.00639 -0.90532,1.35598 -1.53783,0.59385 z"
         id="path621929" /><path
         style="fill:#965cfd;stroke-width:0.352778"
         d="m 32.415968,217.50711 c -1.272347,-1.07061 -1.635814,-2.3305 -1.121719,-3.88822 0.455685,-1.38073 1.493686,-2.14186 3.385821,-2.48269 2.748423,-0.49507 4.089661,-1.90602 4.538503,-4.7744 0.267127,-1.70712 1.40704,-2.68118 3.717594,-3.17671 1.361323,-0.29195 2.263496,-0.75078 3.078296,-1.56558 1.04968,-1.04968 1.152599,-1.34476 1.152599,-3.30455 v -2.15194 h 2.943935 c 2.519722,0 3.038231,0.10419 3.598333,0.7231 1.072804,1.18543 0.86137,3.06192 -0.480057,4.26048 -0.623947,0.5575 -1.533923,1.01364 -2.022164,1.01364 -1.347752,0 -3.213555,0.89858 -3.834942,1.84694 -0.305431,0.46615 -0.693264,1.58588 -0.861853,2.48829 -0.437586,2.34229 -1.204197,3.32813 -2.957799,3.80367 -3.730896,1.01174 -4.364778,1.58933 -4.902401,4.46709 -0.435754,2.33249 -1.750342,3.62179 -3.69282,3.62179 -1.078902,0 -1.785522,-0.24494 -2.541326,-0.88091 z m -8.206598,-8.26418 c -1.160799,-1.1608 -1.346515,-2.62741 -0.532127,-4.20227 0.567302,-1.09704 1.572059,-1.67708 3.433892,-1.98236 2.651551,-0.43477 4.387136,-2.83565 3.963776,-5.48319 l -0.225802,-1.41209 h 2.883345 c 2.59096,0 2.971154,0.0878 3.749255,0.86591 0.964856,0.96485 1.033563,1.37009 0.494486,2.91649 -0.40125,1.15103 -1.714562,1.97825 -4.061276,2.5581 -2.161087,0.53398 -3.68119,2.52521 -3.68119,4.8221 0,0.50902 -0.438836,1.32495 -1.031197,1.91731 -1.452102,1.4521 -3.541059,1.4521 -4.993162,0 z m 35.781704,-2.68225 c -0.311806,-0.81256 0.168074,-7.65586 0.564674,-8.05246 0.177222,-0.17722 0.576083,-0.22481 0.886354,-0.10574 0.480904,0.18454 0.549462,0.82904 0.464686,4.36837 -0.09593,4.0049 -0.127603,4.15589 -0.894775,4.26483 -0.492954,0.07 -0.881101,-0.11059 -1.020939,-0.475 z m 8.291538,-2.09072 c -1.590188,-1.44604 -3.221405,-2.67636 -3.624926,-2.73403 -0.463539,-0.0662 -0.733679,-0.36464 -0.733679,-0.81041 0,-0.64343 0.29512,-0.72139 3.351389,-0.88536 2.808266,-0.15066 3.533066,-0.31558 4.47245,-1.01765 0.648222,-0.48447 1.360198,-0.74609 1.688031,-0.62029 0.983117,0.37726 -0.240658,2.13976 -2.088963,3.00857 -0.881141,0.41419 -1.602074,0.89835 -1.602074,1.07592 0,0.17757 0.943483,1.08958 2.096629,2.02667 2.506148,2.0366 2.66215,2.58575 0.734547,2.58575 -1.250301,0 -1.71528,-0.28474 -4.293404,-2.62917 z m 10.361073,1.93003 c -0.635424,-0.39176 -1.299249,-1.09086 -1.475165,-1.55355 -0.484336,-1.27391 -0.03059,-6.13265 0.595157,-6.37276 0.932395,-0.3578 1.153386,0.17529 1.153386,2.78224 0,1.67952 0.159251,2.71398 0.455679,2.96 0.250624,0.208 1.560312,0.42587 2.910417,0.48416 l 2.454737,0.10599 v 1.05834 1.05833 l -2.469444,0.0948 c -1.973976,0.0758 -2.701248,-0.0481 -3.624767,-0.61753 z m 12.831586,0.15417 c -0.508357,-0.50835 -0.55819,-1.08961 -0.357354,-4.16802 0.241851,-3.70704 0.449023,-4.33655 1.317488,-4.00329 0.368751,0.1415 0.55118,0.95317 0.648818,2.88672 0.150604,2.98239 0.510522,3.49484 2.072224,2.95043 1.348775,-0.47019 3.757732,-2.60316 4.794084,-4.24484 0.951909,-1.50793 1.741979,-1.9917 2.315719,-1.41795 0.5378,0.5378 -1.47079,3.88785 -3.393822,5.66044 -2.512702,2.31613 -6.240163,3.49351 -7.397157,2.33651 z m 15.584689,0.003 c -1.40177,-0.77198 -1.68456,-1.55815 -1.68456,-4.68313 0,-2.03193 0.14219,-2.92023 0.5173,-3.23154 1.01882,-0.84555 1.3726,-0.24102 1.2843,2.19461 -0.12457,3.43604 0.16762,3.79276 3.1065,3.79276 2.66674,0 3.67857,0.58057 2.97198,1.70527 -0.51106,0.81346 -4.83969,0.96851 -6.19552,0.22193 z m 12.51607,0.11831 c -0.24495,-0.29687 -0.30949,-1.78948 -0.18345,-4.24254 0.16814,-3.27232 0.28272,-3.81256 0.84659,-3.99152 0.35868,-0.11384 0.77262,-0.13176 0.91987,-0.0398 0.14726,0.0919 0.26775,2.04688 0.26775,4.3443 0,3.96671 -0.0371,4.18243 -0.73643,4.28235 -0.40503,0.0579 -0.90648,-0.10088 -1.11433,-0.35277 z m 13.43201,-0.0903 c -1.62052,-0.70492 -1.92099,-1.54446 -1.80537,-5.04439 0.093,-2.81536 0.16346,-3.08451 0.80745,-3.08451 0.61991,0 0.73338,0.31161 0.93482,2.56713 0.12609,1.41192 0.42334,2.80099 0.66056,3.08681 0.31613,0.38092 1.20887,0.51967 3.34351,0.51967 3.63686,0 3.84737,-0.20369 3.86647,-3.74126 0.0114,-2.11469 0.11758,-2.60846 0.56089,-2.60858 1.07927,-3.1e-4 1.39347,0.81624 1.39347,3.62137 0,3.23338 -0.32653,4.01722 -1.95734,4.69862 -1.53053,0.63949 -6.32105,0.63031 -7.80446,-0.015 z m 12.81921,0.27908 c -0.4508,-0.45081 -0.22617,-1.4564 1.13849,-5.0965 1.09001,-2.90747 1.52712,-3.68743 2.11667,-3.77688 0.40864,-0.062 0.74299,0.0538 0.74299,0.25723 0,0.73112 -2.19626,7.97905 -2.54849,8.41036 -0.39248,0.48059 -1.0776,0.57785 -1.44966,0.20579 z m 11.46225,-0.38228 c -0.177,-0.33955 -0.74634,-2.12549 -1.26518,-3.96875 -0.51884,-1.84327 -1.0253,-3.6292 -1.12546,-3.96875 -0.1366,-0.46305 0.0222,-0.6169 0.6354,-0.6155 0.72122,0.002 0.99482,0.4849 2.32251,4.10215 1.15911,3.15795 1.41268,4.21151 1.10333,4.58425 -0.55196,0.66506 -1.28487,0.60654 -1.6706,-0.1334 z m 6.05742,0.10309 c -1.63534,-0.71136 -1.91951,-1.5332 -1.80488,-5.21988 0.0931,-2.9927 0.1596,-3.26169 0.80697,-3.26169 0.6372,0 0.72264,0.29399 0.88194,3.03464 0.21787,3.7483 0.53553,4.19913 2.95361,4.19191 0.99489,-0.003 2.01023,-0.1332 2.25631,-0.28939 0.67333,-0.42737 1.14008,-2.43605 1.14008,-4.90635 0,-1.97201 0.0752,-2.20719 0.70556,-2.20719 0.65882,0 0.70555,0.23518 0.70555,3.55097 0,1.95303 -0.1554,3.84133 -0.34533,4.19622 -0.73078,1.36549 -5.02328,1.90104 -7.29981,0.91076 z m 12.58403,-0.10364 -1.23472,-0.61681 -0.0998,-3.96875 c -0.0927,-3.68669 -0.0525,-3.96875 0.56454,-3.96875 0.58542,0 0.69147,0.3831 0.89333,3.22684 0.12597,1.77477 0.40731,3.44164 0.62519,3.70417 0.22339,0.26917 1.07442,0.47732 1.95151,0.47732 1.10071,0 1.61873,0.1651 1.7721,0.56477 0.48293,1.25848 -2.37337,1.62969 -4.4722,0.58121 z m 6.47671,0.0865 c -0.26073,-0.67945 0.0452,-8.22472 0.34564,-8.52518 0.11153,-0.11153 0.45266,-0.10689 0.75807,0.0103 0.47118,0.18081 0.54028,0.86814 0.45619,4.5372 -0.087,3.79443 -0.17486,4.33864 -0.71753,4.44268 -0.34014,0.0652 -0.71921,-0.14404 -0.84237,-0.46501 z m 5.41234,0.30844 c -0.13606,-0.13606 -0.24738,-2.13091 -0.24738,-4.43299 0,-3.4471 0.096,-4.22247 0.54438,-4.39451 0.29941,-0.11489 0.63053,-0.12275 0.73582,-0.0175 0.10529,0.10529 0.21751,2.14466 0.24937,4.53192 0.0489,3.66705 -0.0268,4.35754 -0.48844,4.45045 -0.3005,0.0605 -0.65769,-0.001 -0.79375,-0.13741 z m 6.91694,-0.11508 c -1.5277,-0.65111 -1.90839,-1.7845 -1.79824,-5.35368 0.0937,-3.03491 0.15946,-3.30409 0.80753,-3.30409 0.64226,0 0.72138,0.29399 0.88194,3.27712 0.20254,3.76294 0.33891,3.94131 3.01938,3.94943 2.67632,0.008 2.93932,-0.33139 3.20695,-4.13974 0.20081,-2.85735 0.31051,-3.26319 0.88205,-3.26319 0.59299,0 0.65274,0.33345 0.65274,3.64267 0,3.45337 -0.047,3.68682 -0.90427,4.49219 -0.75641,0.71061 -1.31882,0.86417 -3.43959,0.93917 -1.39442,0.0493 -2.88325,-0.0586 -3.30849,-0.23988 z M 80.808527,202.68941 c -0.471636,-1.22906 0.124534,-1.5875 2.640379,-1.5875 2.595192,0 3.075344,-0.25793 3.283659,-1.76389 0.187029,-1.35206 1.504767,-1.20901 1.624824,0.17639 0.212877,2.45646 -1.501969,3.64711 -5.306258,3.68425 -1.50091,0.0146 -2.093171,-0.11984 -2.242604,-0.50925 z m 28.484533,0.0447 c -0.22113,-0.26645 -0.30296,-0.7427 -0.18184,-1.05833 0.17577,-0.45804 0.74418,-0.57388 2.8159,-0.57388 2.75461,0 3.35199,-0.36372 3.21092,-1.95494 -0.0422,-0.47613 0.15807,-0.6909 0.6443,-0.6909 0.92319,0 1.16111,1.99084 0.38033,3.18247 -0.92881,1.41754 -5.93924,2.21661 -6.86961,1.09558 z m 42.19351,0.26415 c -0.45037,-0.45038 -0.26201,-1.81629 0.2791,-2.02394 0.9428,-0.36178 1.63266,0.15743 1.51839,1.14278 -0.10535,0.90842 -1.22255,1.45609 -1.79749,0.88116 z M 16.934908,201.73795 c -1.001601,-0.48392 -1.99191,-2.57422 -1.724445,-3.63989 0.37371,-1.48897 1.159051,-1.93504 3.406798,-1.93504 2.543202,0 3.502579,0.73214 3.502579,2.67297 0,2.5067 -2.781198,4.06331 -5.184932,2.90196 z m 43.520119,-6.51567 c -0.462488,-0.46249 -0.231518,-2.16018 0.322834,-2.37291 0.306909,-0.11777 2.886597,-0.21179 5.732639,-0.20893 5.775815,0.006 6.868922,0.29343 7.050133,1.85506 0.12561,1.08246 -0.610725,1.31916 -1.346348,0.43279 -0.349952,-0.42166 -1.389109,-0.52916 -5.115278,-0.52916 -3.726169,0 -4.765326,0.1075 -5.115278,0.52916 -0.463359,0.55832 -1.135175,0.68751 -1.528702,0.29399 z m 70.834593,-0.5807 c -0.40532,-1.61492 -0.0571,-2.87808 0.82807,-3.00355 0.77244,-0.10951 0.80774,-0.0214 0.70555,1.76058 -0.0825,1.43833 -0.24862,1.90266 -0.71232,1.99079 -0.39808,0.0757 -0.67876,-0.17991 -0.8213,-0.74782 z m 18.53774,-0.50704 c 0.008,-1.03812 0.85739,-2.9679 1.44528,-3.28252 1.18868,-0.63617 2.68124,-0.0834 3.11208,1.15245 0.20876,0.59886 0.37957,1.38264 0.37957,1.74174 0,0.97534 -0.95417,0.78762 -1.48006,-0.29117 -0.65364,-1.34085 -1.21566,-1.38218 -1.8597,-0.13675 -0.49394,0.95519 -1.60241,1.52168 -1.59717,0.81625 z m 32.87613,-1.5875 c 0.13427,-2.33211 0.77669,-2.27368 0.91881,0.0836 0.0864,1.43234 -9.7e-4,1.76852 -0.4594,1.76852 -0.4612,0 -0.54629,-0.34305 -0.45941,-1.85209 z m 4.9188,-0.38112 c -0.59944,-0.72228 -0.10766,-1.70574 0.78898,-1.57781 0.53384,0.0762 0.74885,0.35869 0.74885,0.98396 0,1.00639 -0.90532,1.35598 -1.53783,0.59385 z M 37.435639,186.64326 c -0.191144,-0.19114 -1.214846,-0.51202 -2.274894,-0.71305 -2.507467,-0.47553 -3.676258,-1.59008 -3.676258,-3.50564 0,-2.51127 2.281312,-3.99754 4.629784,-3.01629 1.297497,0.54213 1.712533,1.20159 2.241373,3.56138 0.211102,0.94199 0.779988,2.2321 1.264186,2.86692 l 0.88036,1.15421 h -1.358508 c -0.74718,0 -1.514899,-0.15639 -1.706043,-0.34753 z"
         id="path621927" /><path
         style="fill:#38b7fd;stroke-width:0.352778"
         d="m 33.585118,218.05452 c -1.384105,-0.56651 -1.991059,-1.61789 -1.874129,-3.24642 l 0.11024,-1.53536 3.258251,-0.10137 3.258251,-0.10136 -0.205975,1.68886 c -0.332564,2.72683 -2.354884,4.19271 -4.546638,3.29565 z M 145.95113,206.57755 c -0.34762,-0.41887 -0.30339,-0.7433 0.22462,-1.64738 0.84941,-1.45438 1.53298,-1.69037 1.53298,-0.52924 0,1.12228 -0.58781,2.6982 -1.0064,2.6982 -0.17508,0 -0.51311,-0.23472 -0.7512,-0.52158 z m 11.70191,0.0596 c -0.53045,-0.65946 -0.85184,-2.62213 -0.46821,-2.85923 0.43902,-0.27132 1.81279,1.45095 1.81279,2.27267 0,0.76788 -0.88736,1.15498 -1.34458,0.58656 z m -97.503819,-0.079 c -0.103515,-0.10352 -0.08397,-0.69787 0.04342,-1.32079 0.278567,-1.36203 1.253578,-1.69647 1.564266,-0.53655 0.413438,1.54352 0.267084,2.04555 -0.596329,2.04555 -0.452734,0 -0.907845,-0.0847 -1.011361,-0.18821 z m 9.562952,-1.13471 c -1.143236,-1.29921 -1.149639,-1.32501 -0.35736,-1.43983 0.709118,-0.10278 4.623361,2.08995 4.623361,2.58996 0,0.095 -0.697929,0.17279 -1.550956,0.17279 -1.350081,0 -1.701722,-0.17134 -2.715045,-1.32292 z m 8.723299,0.59176 c -0.967836,-0.7613 -1.267298,-2.09106 -0.470909,-2.09106 0.252236,0 0.656456,0.19844 0.898264,0.44097 0.241808,0.24254 1.66262,0.52035 3.157361,0.61736 2.487037,0.16142 2.727275,0.24376 2.830438,0.97014 0.108779,0.76593 0.0146,0.79375 -2.686452,0.79375 -2.297684,0 -2.965715,-0.13099 -3.728702,-0.73116 z m 13.063999,0.49597 c -0.340642,-0.34063 -0.278705,-1.61916 0.108074,-2.23093 0.291003,-0.46028 0.463387,-0.44851 1.382529,0.0944 0.962081,0.56832 1.177639,0.57586 2.572558,0.09 0.837367,-0.29166 1.824901,-0.53259 2.194524,-0.53542 0.660863,-0.005 0.660863,0.007 0,0.75025 -1.324056,1.48825 -5.406217,2.68313 -6.257685,1.83165 z m 15.094609,-0.63072 c -0.93499,-0.93499 -1.14762,-1.95631 -0.4073,-1.95631 0.25224,0 0.65646,0.19844 0.89827,0.44097 0.24181,0.24254 1.66262,0.52035 3.15736,0.61736 2.48704,0.16142 2.72728,0.24376 2.83044,0.97014 0.10896,0.7672 0.017,0.79375 -2.75006,0.79375 -2.56914,0 -2.95162,-0.0888 -3.72871,-0.86591 z m 12.89783,-0.10423 c 0.007,-1.28878 0.49891,-2.00479 1.19372,-1.73817 0.3703,0.1421 0.56477,0.64567 0.56477,1.46252 0,1.09366 -0.1077,1.24579 -0.88195,1.24579 -0.72824,0 -0.881,-0.16907 -0.87654,-0.97014 z m 12.85495,0.10423 c -0.47625,-0.47625 -0.86591,-1.11125 -0.86591,-1.41111 0,-0.6975 1.18936,-0.70831 1.76389,-0.0161 0.61456,0.7405 6.27693,0.74926 7.25271,0.0112 1.71971,-1.30072 2.59456,-0.12503 1.0536,1.41592 -0.81034,0.81037 -1.10564,0.86593 -4.60214,0.86593 -3.4965,0 -3.7918,-0.0556 -4.60215,-0.86591 z m 30.33889,0 c -0.87599,-0.87599 -1.11465,-1.76095 -0.56629,-2.09985 0.1648,-0.10185 0.63634,0.20208 1.04788,0.67539 1.4273,1.64155 4.94631,1.65243 6.2485,0.0193 0.9062,-1.1365 1.22345,-1.1422 1.22345,-0.022 0,1.70213 -1.09507,2.29305 -4.24937,2.29305 -2.54309,0 -2.92831,-0.0901 -3.70417,-0.86591 z m 12.98062,0.32843 c -0.51633,-0.36483 -0.79375,-0.92377 -0.79375,-1.59919 0,-1.2801 0.16786,-1.29265 1.20245,-0.0899 0.59353,0.69002 1.26494,1.00244 2.464,1.14653 0.90648,0.10894 1.64482,0.35682 1.64074,0.55084 -0.013,0.61956 -3.63429,0.61288 -4.51344,-0.008 z m 6.84009,0.26418 c -0.207,-0.33493 0.38755,-2.51482 0.71925,-2.63712 0.32157,-0.11856 0.85828,1.91384 0.65212,2.46945 -0.18036,0.48608 -1.10473,0.5991 -1.37137,0.16767 z m 5.20864,-1.18166 c 0.13343,-0.83444 0.31736,-1.59191 0.40872,-1.68328 0.34105,-0.34105 0.80628,0.53293 0.91937,1.72713 0.10171,1.07398 0.007,1.25025 -0.72688,1.35401 -0.80802,0.11423 -0.83352,0.055 -0.60121,-1.39786 z m 6.23312,0.52544 c -0.40214,-0.51123 -0.73116,-1.11978 -0.73116,-1.35231 0,-0.89101 0.51813,-0.87377 1.24797,0.0415 0.64217,0.80536 1.09468,0.9769 2.92638,1.1094 2.0605,0.14904 2.21714,0.10277 3.19468,-0.94369 0.56537,-0.60523 1.123,-1.10041 1.23918,-1.10041 0.55305,0 0.11877,1.72777 -0.60525,2.40795 -0.69979,0.65743 -1.22553,0.76705 -3.67856,0.76705 -2.67176,0 -2.9107,-0.0618 -3.59324,-0.92952 z m -170.064491,-0.7938 c 0,-0.85563 1.213581,-1.63308 2.990339,-1.91569 2.81118,-0.44713 4.600001,-2.76313 4.205596,-5.44502 l -0.220491,-1.4993 h 2.878314 c 2.585616,0 2.966367,0.0881 3.744222,0.86591 0.964856,0.96485 1.033563,1.37009 0.494486,2.91649 -0.401571,1.15195 -1.714422,1.97812 -4.067778,2.55985 -0.946102,0.23387 -1.88945,0.84123 -2.748247,1.76942 l -1.307657,1.41333 h -2.984392 c -2.688511,0 -2.984392,-0.0659 -2.984392,-0.66499 z m 15.875,0.1905 c 0,-0.83509 1.209784,-1.60645 3.183336,-2.0297 1.35532,-0.29067 2.258699,-0.75063 3.072398,-1.56432 1.04968,-1.04968 1.152599,-1.34476 1.152599,-3.30455 v -2.15194 h 2.943935 c 2.519722,0 3.038231,0.10419 3.598333,0.7231 1.072804,1.18543 0.86137,3.06192 -0.480057,4.26048 -0.623947,0.5575 -1.533923,1.01364 -2.022164,1.01364 -1.526985,0 -3.260379,0.95459 -4.107522,2.26203 l -0.814469,1.25701 -3.263194,0.004 c -2.500475,0.003 -3.263195,-0.10654 -3.263195,-0.47013 z m -22.823821,-3.47558 c -1.001601,-0.48392 -1.99191,-2.57422 -1.724445,-3.63989 0.37371,-1.48897 1.159051,-1.93504 3.406798,-1.93504 2.543202,0 3.502579,0.73214 3.502579,2.67297 0,2.5067 -2.781198,4.06331 -5.184932,2.90196 z m 43.352842,-1.78257 c 0.08885,-1.22796 0.236171,-1.49931 0.814035,-1.49931 0.577864,0 0.725187,0.27135 0.814034,1.49931 0.101967,1.40931 0.0531,1.4993 -0.814034,1.4993 -0.867139,0 -0.916002,-0.09 -0.814035,-1.4993 z m 3.61726,1.11579 c -0.443071,-0.7169 0.366705,-0.96447 3.546775,-1.08432 2.685969,-0.10124 3.347674,-0.24924 4.296061,-0.96093 0.649248,-0.48721 1.359683,-0.7497 1.688031,-0.6237 0.50662,0.19441 0.512145,0.32359 0.05192,1.21356 -0.283277,0.54779 -0.931298,1.18564 -1.440049,1.41745 -1.176775,0.53617 -7.8157,0.56711 -8.142743,0.0379 z m 13.248164,-0.96532 c 0,-0.97946 0.176057,-1.46546 0.588158,-1.6236 0.84994,-0.32615 1.24357,0.24124 1.113233,1.60466 -0.08835,0.92416 -0.291928,1.21667 -0.907641,1.30412 -0.708572,0.10063 -0.79375,-0.0373 -0.79375,-1.28518 z m 8.819444,1.06661 c 0,-0.15522 0.145309,-0.43303 0.322905,-0.61736 0.177599,-0.18433 0.376036,-0.73201 0.440972,-1.21708 0.08101,-0.60511 0.338021,-0.88195 0.81879,-0.88195 0.779424,0 1.064426,0.83168 0.734907,2.14457 -0.166801,0.6646 -0.447615,0.85404 -1.265961,0.85404 -0.578386,0 -1.051613,-0.127 -1.051613,-0.28222 z m 5.359577,-1.21708 c 0.08885,-1.22796 0.23617,-1.49931 0.814034,-1.49931 0.577864,0 0.725188,0.27135 0.814035,1.49931 0.101967,1.40931 0.0531,1.4993 -0.814035,1.4993 -0.867138,0 -0.916001,-0.09 -0.814034,-1.4993 z m 8.045979,1.1987 c 0,-0.71532 1.673826,-2.69801 2.277706,-2.69801 0.9422,0 0.99865,0.53472 0.19552,1.85209 -0.49031,0.80426 -0.9638,1.14652 -1.5861,1.14652 -0.487919,0 -0.887126,-0.13527 -0.887126,-0.3006 z m 5.997226,-0.86639 c 0,-1.29478 0.73545,-2.20739 1.53242,-1.90157 0.34908,0.13396 0.4224,0.56081 0.26433,1.53878 -0.16966,1.04968 -0.39581,1.37869 -1.00775,1.46613 -0.68603,0.098 -0.789,-0.046 -0.789,-1.10334 z m 9.17869,0.63003 c 0.26999,-0.32532 0.49805,-1.01228 0.5068,-1.52657 0.0118,-0.69459 0.19735,-0.93508 0.72145,-0.93508 0.58796,0 0.70556,0.23519 0.70556,1.41111 0,1.35016 -0.0524,1.4161 -1.21235,1.52657 -1.09946,0.1047 -1.16664,0.0604 -0.72146,-0.47603 z m 4.93242,-0.85037 c 0,-1.09967 0.15366,-1.43611 0.74106,-1.62255 1.01564,-0.32235 1.31346,0.12844 1.11451,1.68697 -0.14204,1.11268 -0.3029,1.32291 -1.01223,1.32291 -0.74631,0 -0.84334,-0.15962 -0.84334,-1.38733 z m 11.70957,-0.11197 c 0.0889,-1.22796 0.23617,-1.49931 0.81404,-1.49931 0.57786,0 0.72519,0.27135 0.81403,1.49931 0.10197,1.40931 0.0531,1.4993 -0.81403,1.4993 -0.86714,0 -0.916,-0.09 -0.81404,-1.4993 z m 9.80506,0.70555 c -0.003,-0.43656 -0.10055,-1.15093 -0.21754,-1.5875 -0.16643,-0.62104 -0.0656,-0.79375 0.46343,-0.79375 0.99558,0 1.52281,0.69619 1.52281,2.01084 0,1.00659 -0.11937,1.16416 -0.88194,1.16416 -0.678,0 -0.88306,-0.18355 -0.88676,-0.79375 z m 6.61883,0.23463 c -0.11348,-0.11349 -0.006,-0.78818 0.2394,-1.49931 0.30076,-0.87239 0.69299,-1.32962 1.20589,-1.40569 0.86638,-0.12848 0.95299,0.33618 0.37285,2.00037 -0.35528,1.01916 -1.25563,1.46713 -1.81814,0.90463 z m 7.91108,-0.41102 c -0.17401,-0.33954 -0.42075,-1.05392 -0.5483,-1.5875 -0.20315,-0.84986 -0.12865,-0.97013 0.60092,-0.97013 0.66117,0 0.91704,0.2811 1.24144,1.36384 0.5329,1.77865 0.52779,1.81116 -0.28453,1.81116 -0.38122,0 -0.83551,-0.27782 -1.00953,-0.61737 z m 6.08503,0.14407 c -0.1109,-0.28899 -0.15011,-0.97541 -0.0871,-1.52538 0.0832,-0.72658 0.30738,-0.99994 0.82006,-0.99994 0.58756,0 0.70555,0.23519 0.70555,1.40628 0,1.05977 -0.15238,1.43563 -0.61842,1.52538 -0.34014,0.0655 -0.70917,-0.11735 -0.82006,-0.40634 z m 7.96487,-1.1142 c 0,-1.35232 0.10453,-1.5875 0.70556,-1.5875 0.60103,0 0.70555,0.23518 0.70555,1.5875 0,1.35231 -0.10452,1.5875 -0.70555,1.5875 -0.60103,0 -0.70556,-0.23519 -0.70556,-1.5875 z m 4.93889,0 c 0,-1.35232 0.10453,-1.5875 0.70556,-1.5875 0.60102,0 0.70555,0.23518 0.70555,1.5875 0,1.35231 -0.10453,1.5875 -0.70555,1.5875 -0.60103,0 -0.70556,-0.23519 -0.70556,-1.5875 z m 8.01957,1.34245 c -0.0881,-0.15627 -0.0845,-0.88755 0.008,-1.62507 0.12542,-1.00162 0.31383,-1.31284 0.74457,-1.22989 0.8253,0.15894 0.81831,2.86742 -0.008,3.02651 -0.32146,0.0619 -0.65652,-0.0153 -0.74457,-0.17155 z m 5.17222,-0.25432 c -0.36507,-0.95136 0.0209,-2.49009 0.65474,-2.61029 0.51503,-0.0977 0.61736,0.15033 0.61736,1.49629 0,1.21361 -0.13386,1.61337 -0.54024,1.61337 -0.29713,0 -0.62647,-0.22472 -0.73186,-0.49937 z m 5.30167,0.0261 c -0.1109,-0.28899 -0.1501,-0.97541 -0.0871,-1.52537 0.0832,-0.72659 0.30738,-0.99995 0.82006,-0.99995 0.58756,0 0.70556,0.23519 0.70556,1.40628 0,1.05977 -0.15239,1.43563 -0.61843,1.52538 -0.34014,0.0655 -0.70917,-0.11735 -0.82006,-0.40634 z m 7.96487,-1.1142 c 0,-1.35232 0.10453,-1.5875 0.70556,-1.5875 0.60103,0 0.70556,0.23518 0.70556,1.5875 0,1.35231 -0.10453,1.5875 -0.70556,1.5875 -0.60103,0 -0.70556,-0.23519 -0.70556,-1.5875 z M 60.455027,195.22228 c -0.462488,-0.46249 -0.231518,-2.16018 0.322834,-2.37291 0.306909,-0.11777 2.886597,-0.21179 5.732639,-0.20893 5.775815,0.006 6.868922,0.29343 7.050133,1.85506 0.12561,1.08246 -0.610725,1.31916 -1.346348,0.43279 -0.349952,-0.42166 -1.389109,-0.52916 -5.115278,-0.52916 -3.726169,0 -4.765326,0.1075 -5.115278,0.52916 -0.463359,0.55832 -1.135175,0.68751 -1.528702,0.29399 z m 70.834593,-0.5807 c -0.40532,-1.61492 -0.0571,-2.87808 0.82807,-3.00355 0.77244,-0.10951 0.80774,-0.0214 0.70555,1.76058 -0.0825,1.43833 -0.24862,1.90266 -0.71232,1.99079 -0.39808,0.0757 -0.67876,-0.17991 -0.8213,-0.74782 z m 18.53774,-0.50704 c 0.008,-1.03812 0.85739,-2.9679 1.44528,-3.28252 1.18868,-0.63617 2.68124,-0.0834 3.11208,1.15245 0.20876,0.59886 0.37957,1.38264 0.37957,1.74174 0,0.97534 -0.95417,0.78762 -1.48006,-0.29117 -0.65364,-1.34085 -1.21566,-1.38218 -1.8597,-0.13675 -0.49394,0.95519 -1.60241,1.52168 -1.59717,0.81625 z m 32.87613,-1.5875 c 0.13427,-2.33211 0.77669,-2.27368 0.91881,0.0836 0.0864,1.43234 -9.7e-4,1.76852 -0.4594,1.76852 -0.4612,0 -0.54629,-0.34305 -0.45941,-1.85209 z m 4.9188,-0.38112 c -0.59944,-0.72228 -0.10766,-1.70574 0.78898,-1.57781 0.53384,0.0762 0.74885,0.35869 0.74885,0.98396 0,1.00639 -0.90532,1.35598 -1.53783,0.59385 z M 37.435639,186.64326 c -0.191144,-0.19114 -1.214846,-0.51202 -2.274894,-0.71305 -2.507467,-0.47553 -3.676258,-1.59008 -3.676258,-3.50564 0,-2.51127 2.281312,-3.99754 4.629784,-3.01629 1.297497,0.54213 1.712533,1.20159 2.241373,3.56138 0.211102,0.94199 0.779988,2.2321 1.264186,2.86692 l 0.88036,1.15421 h -1.358508 c -0.74718,0 -1.514899,-0.15639 -1.706043,-0.34753 z"
         id="path621925" /><path
         style="fill:#7372fd;stroke-width:0.352778"
         d="m 33.585118,218.05452 c -1.384105,-0.56651 -1.991059,-1.61789 -1.874129,-3.24642 l 0.11024,-1.53536 3.258251,-0.10137 3.258251,-0.10136 -0.205975,1.68886 c -0.332564,2.72683 -2.354884,4.19271 -4.546638,3.29565 z M 145.95113,206.57755 c -0.34762,-0.41887 -0.30339,-0.7433 0.22462,-1.64738 0.84941,-1.45438 1.53298,-1.69037 1.53298,-0.52924 0,1.12228 -0.58781,2.6982 -1.0064,2.6982 -0.17508,0 -0.51311,-0.23472 -0.7512,-0.52158 z m 11.70191,0.0596 c -0.53045,-0.65946 -0.85184,-2.62213 -0.46821,-2.85923 0.43902,-0.27132 1.81279,1.45095 1.81279,2.27267 0,0.76788 -0.88736,1.15498 -1.34458,0.58656 z m -97.503819,-0.079 c -0.103515,-0.10352 -0.08397,-0.69787 0.04342,-1.32079 0.278567,-1.36203 1.253578,-1.69647 1.564266,-0.53655 0.413438,1.54352 0.267084,2.04555 -0.596329,2.04555 -0.452734,0 -0.907845,-0.0847 -1.011361,-0.18821 z m 9.562952,-1.13471 c -1.143236,-1.29921 -1.149639,-1.32501 -0.35736,-1.43983 0.709118,-0.10278 4.623361,2.08995 4.623361,2.58996 0,0.095 -0.697929,0.17279 -1.550956,0.17279 -1.350081,0 -1.701722,-0.17134 -2.715045,-1.32292 z m 8.723299,0.59176 c -0.967836,-0.7613 -1.267298,-2.09106 -0.470909,-2.09106 0.252236,0 0.656456,0.19844 0.898264,0.44097 0.241808,0.24254 1.66262,0.52035 3.157361,0.61736 2.487037,0.16142 2.727275,0.24376 2.830438,0.97014 0.108779,0.76593 0.0146,0.79375 -2.686452,0.79375 -2.297684,0 -2.965715,-0.13099 -3.728702,-0.73116 z m 13.063999,0.49597 c -0.340642,-0.34063 -0.278705,-1.61916 0.108074,-2.23093 0.291003,-0.46028 0.463387,-0.44851 1.382529,0.0944 0.962081,0.56832 1.177639,0.57586 2.572558,0.09 0.837367,-0.29166 1.824901,-0.53259 2.194524,-0.53542 0.660863,-0.005 0.660863,0.007 0,0.75025 -1.324056,1.48825 -5.406217,2.68313 -6.257685,1.83165 z m 15.094609,-0.63072 c -0.93499,-0.93499 -1.14762,-1.95631 -0.4073,-1.95631 0.25224,0 0.65646,0.19844 0.89827,0.44097 0.24181,0.24254 1.66262,0.52035 3.15736,0.61736 2.48704,0.16142 2.72728,0.24376 2.83044,0.97014 0.10896,0.7672 0.017,0.79375 -2.75006,0.79375 -2.56914,0 -2.95162,-0.0888 -3.72871,-0.86591 z m 12.89783,-0.10423 c 0.007,-1.28878 0.49891,-2.00479 1.19372,-1.73817 0.3703,0.1421 0.56477,0.64567 0.56477,1.46252 0,1.09366 -0.1077,1.24579 -0.88195,1.24579 -0.72824,0 -0.881,-0.16907 -0.87654,-0.97014 z m 12.85495,0.10423 c -0.47625,-0.47625 -0.86591,-1.11125 -0.86591,-1.41111 0,-0.6975 1.18936,-0.70831 1.76389,-0.0161 0.61456,0.7405 6.27693,0.74926 7.25271,0.0112 1.71971,-1.30072 2.59456,-0.12503 1.0536,1.41592 -0.81034,0.81037 -1.10564,0.86593 -4.60214,0.86593 -3.4965,0 -3.7918,-0.0556 -4.60215,-0.86591 z m 30.33889,0 c -0.87599,-0.87599 -1.11465,-1.76095 -0.56629,-2.09985 0.1648,-0.10185 0.63634,0.20208 1.04788,0.67539 1.4273,1.64155 4.94631,1.65243 6.2485,0.0193 0.9062,-1.1365 1.22345,-1.1422 1.22345,-0.022 0,1.70213 -1.09507,2.29305 -4.24937,2.29305 -2.54309,0 -2.92831,-0.0901 -3.70417,-0.86591 z m 12.98062,0.32843 c -0.51633,-0.36483 -0.79375,-0.92377 -0.79375,-1.59919 0,-1.2801 0.16786,-1.29265 1.20245,-0.0899 0.59353,0.69002 1.26494,1.00244 2.464,1.14653 0.90648,0.10894 1.64482,0.35682 1.64074,0.55084 -0.013,0.61956 -3.63429,0.61288 -4.51344,-0.008 z m 6.84009,0.26418 c -0.207,-0.33493 0.38755,-2.51482 0.71925,-2.63712 0.32157,-0.11856 0.85828,1.91384 0.65212,2.46945 -0.18036,0.48608 -1.10473,0.5991 -1.37137,0.16767 z m 5.20864,-1.18166 c 0.13343,-0.83444 0.31736,-1.59191 0.40872,-1.68328 0.34105,-0.34105 0.80628,0.53293 0.91937,1.72713 0.10171,1.07398 0.007,1.25025 -0.72688,1.35401 -0.80802,0.11423 -0.83352,0.055 -0.60121,-1.39786 z m 6.23312,0.52544 c -0.40214,-0.51123 -0.73116,-1.11978 -0.73116,-1.35231 0,-0.89101 0.51813,-0.87377 1.24797,0.0415 0.64217,0.80536 1.09468,0.9769 2.92638,1.1094 2.0605,0.14904 2.21714,0.10277 3.19468,-0.94369 0.56537,-0.60523 1.123,-1.10041 1.23918,-1.10041 0.55305,0 0.11877,1.72777 -0.60525,2.40795 -0.69979,0.65743 -1.22553,0.76705 -3.67856,0.76705 -2.67176,0 -2.9107,-0.0618 -3.59324,-0.92952 z m -170.064491,-0.7938 c 0,-0.85563 1.213581,-1.63308 2.990339,-1.91569 2.81118,-0.44713 4.600001,-2.76313 4.205596,-5.44502 l -0.220491,-1.4993 h 2.878314 c 2.585616,0 2.966367,0.0881 3.744222,0.86591 0.964856,0.96485 1.033563,1.37009 0.494486,2.91649 -0.401571,1.15195 -1.714422,1.97812 -4.067778,2.55985 -0.946102,0.23387 -1.88945,0.84123 -2.748247,1.76942 l -1.307657,1.41333 h -2.984392 c -2.688511,0 -2.984392,-0.0659 -2.984392,-0.66499 z m 15.875,0.1905 c 0,-0.83509 1.209784,-1.60645 3.183336,-2.0297 1.35532,-0.29067 2.258699,-0.75063 3.072398,-1.56432 1.04968,-1.04968 1.152599,-1.34476 1.152599,-3.30455 v -2.15194 h 2.943935 c 2.519722,0 3.038231,0.10419 3.598333,0.7231 1.072804,1.18543 0.86137,3.06192 -0.480057,4.26048 -0.623947,0.5575 -1.533923,1.01364 -2.022164,1.01364 -1.526985,0 -3.260379,0.95459 -4.107522,2.26203 l -0.814469,1.25701 -3.263194,0.004 c -2.500475,0.003 -3.263195,-0.10654 -3.263195,-0.47013 z m -22.823821,-3.47558 c -1.001601,-0.48392 -1.99191,-2.57422 -1.724445,-3.63989 0.37371,-1.48897 1.159051,-1.93504 3.406798,-1.93504 2.543202,0 3.502579,0.73214 3.502579,2.67297 0,2.5067 -2.781198,4.06331 -5.184932,2.90196 z m 43.352842,-1.78257 c 0.08885,-1.22796 0.236171,-1.49931 0.814035,-1.49931 0.577864,0 0.725187,0.27135 0.814034,1.49931 0.101967,1.40931 0.0531,1.4993 -0.814034,1.4993 -0.867139,0 -0.916002,-0.09 -0.814035,-1.4993 z m 3.61726,1.11579 c -0.443071,-0.7169 0.366705,-0.96447 3.546775,-1.08432 2.685969,-0.10124 3.347674,-0.24924 4.296061,-0.96093 0.649248,-0.48721 1.359683,-0.7497 1.688031,-0.6237 0.50662,0.19441 0.512145,0.32359 0.05192,1.21356 -0.283277,0.54779 -0.931298,1.18564 -1.440049,1.41745 -1.176775,0.53617 -7.8157,0.56711 -8.142743,0.0379 z m 13.248164,-0.96532 c 0,-0.97946 0.176057,-1.46546 0.588158,-1.6236 0.84994,-0.32615 1.24357,0.24124 1.113233,1.60466 -0.08835,0.92416 -0.291928,1.21667 -0.907641,1.30412 -0.708572,0.10063 -0.79375,-0.0373 -0.79375,-1.28518 z m 8.819444,1.06661 c 0,-0.15522 0.145309,-0.43303 0.322905,-0.61736 0.177599,-0.18433 0.376036,-0.73201 0.440972,-1.21708 0.08101,-0.60511 0.338021,-0.88195 0.81879,-0.88195 0.779424,0 1.064426,0.83168 0.734907,2.14457 -0.166801,0.6646 -0.447615,0.85404 -1.265961,0.85404 -0.578386,0 -1.051613,-0.127 -1.051613,-0.28222 z m 5.359577,-1.21708 c 0.08885,-1.22796 0.23617,-1.49931 0.814034,-1.49931 0.577864,0 0.725188,0.27135 0.814035,1.49931 0.101967,1.40931 0.0531,1.4993 -0.814035,1.4993 -0.867138,0 -0.916001,-0.09 -0.814034,-1.4993 z m 8.045979,1.1987 c 0,-0.71532 1.673826,-2.69801 2.277706,-2.69801 0.9422,0 0.99865,0.53472 0.19552,1.85209 -0.49031,0.80426 -0.9638,1.14652 -1.5861,1.14652 -0.487919,0 -0.887126,-0.13527 -0.887126,-0.3006 z m 5.997226,-0.86639 c 0,-1.29478 0.73545,-2.20739 1.53242,-1.90157 0.34908,0.13396 0.4224,0.56081 0.26433,1.53878 -0.16966,1.04968 -0.39581,1.37869 -1.00775,1.46613 -0.68603,0.098 -0.789,-0.046 -0.789,-1.10334 z m 9.17869,0.63003 c 0.26999,-0.32532 0.49805,-1.01228 0.5068,-1.52657 0.0118,-0.69459 0.19735,-0.93508 0.72145,-0.93508 0.58796,0 0.70556,0.23519 0.70556,1.41111 0,1.35016 -0.0524,1.4161 -1.21235,1.52657 -1.09946,0.1047 -1.16664,0.0604 -0.72146,-0.47603 z m 4.93242,-0.85037 c 0,-1.09967 0.15366,-1.43611 0.74106,-1.62255 1.01564,-0.32235 1.31346,0.12844 1.11451,1.68697 -0.14204,1.11268 -0.3029,1.32291 -1.01223,1.32291 -0.74631,0 -0.84334,-0.15962 -0.84334,-1.38733 z m 11.70957,-0.11197 c 0.0889,-1.22796 0.23617,-1.49931 0.81404,-1.49931 0.57786,0 0.72519,0.27135 0.81403,1.49931 0.10197,1.40931 0.0531,1.4993 -0.81403,1.4993 -0.86714,0 -0.916,-0.09 -0.81404,-1.4993 z m 9.80506,0.70555 c -0.003,-0.43656 -0.10055,-1.15093 -0.21754,-1.5875 -0.16643,-0.62104 -0.0656,-0.79375 0.46343,-0.79375 0.99558,0 1.52281,0.69619 1.52281,2.01084 0,1.00659 -0.11937,1.16416 -0.88194,1.16416 -0.678,0 -0.88306,-0.18355 -0.88676,-0.79375 z m 6.61883,0.23463 c -0.11348,-0.11349 -0.006,-0.78818 0.2394,-1.49931 0.30076,-0.87239 0.69299,-1.32962 1.20589,-1.40569 0.86638,-0.12848 0.95299,0.33618 0.37285,2.00037 -0.35528,1.01916 -1.25563,1.46713 -1.81814,0.90463 z m 7.91108,-0.41102 c -0.17401,-0.33954 -0.42075,-1.05392 -0.5483,-1.5875 -0.20315,-0.84986 -0.12865,-0.97013 0.60092,-0.97013 0.66117,0 0.91704,0.2811 1.24144,1.36384 0.5329,1.77865 0.52779,1.81116 -0.28453,1.81116 -0.38122,0 -0.83551,-0.27782 -1.00953,-0.61737 z m 6.08503,0.14407 c -0.1109,-0.28899 -0.15011,-0.97541 -0.0871,-1.52538 0.0832,-0.72658 0.30738,-0.99994 0.82006,-0.99994 0.58756,0 0.70555,0.23519 0.70555,1.40628 0,1.05977 -0.15238,1.43563 -0.61842,1.52538 -0.34014,0.0655 -0.70917,-0.11735 -0.82006,-0.40634 z m 7.96487,-1.1142 c 0,-1.35232 0.10453,-1.5875 0.70556,-1.5875 0.60103,0 0.70555,0.23518 0.70555,1.5875 0,1.35231 -0.10452,1.5875 -0.70555,1.5875 -0.60103,0 -0.70556,-0.23519 -0.70556,-1.5875 z m 4.93889,0 c 0,-1.35232 0.10453,-1.5875 0.70556,-1.5875 0.60102,0 0.70555,0.23518 0.70555,1.5875 0,1.35231 -0.10453,1.5875 -0.70555,1.5875 -0.60103,0 -0.70556,-0.23519 -0.70556,-1.5875 z m 8.01957,1.34245 c -0.0881,-0.15627 -0.0845,-0.88755 0.008,-1.62507 0.12542,-1.00162 0.31383,-1.31284 0.74457,-1.22989 0.8253,0.15894 0.81831,2.86742 -0.008,3.02651 -0.32146,0.0619 -0.65652,-0.0153 -0.74457,-0.17155 z m 5.17222,-0.25432 c -0.36507,-0.95136 0.0209,-2.49009 0.65474,-2.61029 0.51503,-0.0977 0.61736,0.15033 0.61736,1.49629 0,1.21361 -0.13386,1.61337 -0.54024,1.61337 -0.29713,0 -0.62647,-0.22472 -0.73186,-0.49937 z m 5.30167,0.0261 c -0.1109,-0.28899 -0.1501,-0.97541 -0.0871,-1.52537 0.0832,-0.72659 0.30738,-0.99995 0.82006,-0.99995 0.58756,0 0.70556,0.23519 0.70556,1.40628 0,1.05977 -0.15239,1.43563 -0.61843,1.52538 -0.34014,0.0655 -0.70917,-0.11735 -0.82006,-0.40634 z m 7.96487,-1.1142 c 0,-1.35232 0.10453,-1.5875 0.70556,-1.5875 0.60103,0 0.70556,0.23518 0.70556,1.5875 0,1.35231 -0.10453,1.5875 -0.70556,1.5875 -0.60103,0 -0.70556,-0.23519 -0.70556,-1.5875 z"
         id="path621923" /><path
         style="fill:#a736fd;stroke-width:0.352778"
         d="m 33.585118,218.05452 c -1.384105,-0.56651 -1.991059,-1.61789 -1.874129,-3.24642 l 0.11024,-1.53536 3.258251,-0.10137 3.258251,-0.10136 -0.205975,1.68886 c -0.332564,2.72683 -2.354884,4.19271 -4.546638,3.29565 z M 145.95113,206.57755 c -0.34762,-0.41887 -0.30339,-0.7433 0.22462,-1.64738 0.84941,-1.45438 1.53298,-1.69037 1.53298,-0.52924 0,1.12228 -0.58781,2.6982 -1.0064,2.6982 -0.17508,0 -0.51311,-0.23472 -0.7512,-0.52158 z m 11.70191,0.0596 c -0.53045,-0.65946 -0.85184,-2.62213 -0.46821,-2.85923 0.43902,-0.27132 1.81279,1.45095 1.81279,2.27267 0,0.76788 -0.88736,1.15498 -1.34458,0.58656 z m -97.503819,-0.079 c -0.103515,-0.10352 -0.08397,-0.69787 0.04342,-1.32079 0.278567,-1.36203 1.253578,-1.69647 1.564266,-0.53655 0.413438,1.54352 0.267084,2.04555 -0.596329,2.04555 -0.452734,0 -0.907845,-0.0847 -1.011361,-0.18821 z m 9.562952,-1.13471 c -1.143236,-1.29921 -1.149639,-1.32501 -0.35736,-1.43983 0.709118,-0.10278 4.623361,2.08995 4.623361,2.58996 0,0.095 -0.697929,0.17279 -1.550956,0.17279 -1.350081,0 -1.701722,-0.17134 -2.715045,-1.32292 z m 8.723299,0.59176 c -0.967836,-0.7613 -1.267298,-2.09106 -0.470909,-2.09106 0.252236,0 0.656456,0.19844 0.898264,0.44097 0.241808,0.24254 1.66262,0.52035 3.157361,0.61736 2.487037,0.16142 2.727275,0.24376 2.830438,0.97014 0.108779,0.76593 0.0146,0.79375 -2.686452,0.79375 -2.297684,0 -2.965715,-0.13099 -3.728702,-0.73116 z m 13.063999,0.49597 c -0.340642,-0.34063 -0.278705,-1.61916 0.108074,-2.23093 0.291003,-0.46028 0.463387,-0.44851 1.382529,0.0944 0.962081,0.56832 1.177639,0.57586 2.572558,0.09 0.837367,-0.29166 1.824901,-0.53259 2.194524,-0.53542 0.660863,-0.005 0.660863,0.007 0,0.75025 -1.324056,1.48825 -5.406217,2.68313 -6.257685,1.83165 z m 15.094609,-0.63072 c -0.93499,-0.93499 -1.14762,-1.95631 -0.4073,-1.95631 0.25224,0 0.65646,0.19844 0.89827,0.44097 0.24181,0.24254 1.66262,0.52035 3.15736,0.61736 2.48704,0.16142 2.72728,0.24376 2.83044,0.97014 0.10896,0.7672 0.017,0.79375 -2.75006,0.79375 -2.56914,0 -2.95162,-0.0888 -3.72871,-0.86591 z m 12.89783,-0.10423 c 0.007,-1.28878 0.49891,-2.00479 1.19372,-1.73817 0.3703,0.1421 0.56477,0.64567 0.56477,1.46252 0,1.09366 -0.1077,1.24579 -0.88195,1.24579 -0.72824,0 -0.881,-0.16907 -0.87654,-0.97014 z m 12.85495,0.10423 c -0.47625,-0.47625 -0.86591,-1.11125 -0.86591,-1.41111 0,-0.6975 1.18936,-0.70831 1.76389,-0.0161 0.61456,0.7405 6.27693,0.74926 7.25271,0.0112 1.71971,-1.30072 2.59456,-0.12503 1.0536,1.41592 -0.81034,0.81037 -1.10564,0.86593 -4.60214,0.86593 -3.4965,0 -3.7918,-0.0556 -4.60215,-0.86591 z m 30.33889,0 c -0.87599,-0.87599 -1.11465,-1.76095 -0.56629,-2.09985 0.1648,-0.10185 0.63634,0.20208 1.04788,0.67539 1.4273,1.64155 4.94631,1.65243 6.2485,0.0193 0.9062,-1.1365 1.22345,-1.1422 1.22345,-0.022 0,1.70213 -1.09507,2.29305 -4.24937,2.29305 -2.54309,0 -2.92831,-0.0901 -3.70417,-0.86591 z m 12.98062,0.32843 c -0.51633,-0.36483 -0.79375,-0.92377 -0.79375,-1.59919 0,-1.2801 0.16786,-1.29265 1.20245,-0.0899 0.59353,0.69002 1.26494,1.00244 2.464,1.14653 0.90648,0.10894 1.64482,0.35682 1.64074,0.55084 -0.013,0.61956 -3.63429,0.61288 -4.51344,-0.008 z m 6.84009,0.26418 c -0.207,-0.33493 0.38755,-2.51482 0.71925,-2.63712 0.32157,-0.11856 0.85828,1.91384 0.65212,2.46945 -0.18036,0.48608 -1.10473,0.5991 -1.37137,0.16767 z m 5.20864,-1.18166 c 0.13343,-0.83444 0.31736,-1.59191 0.40872,-1.68328 0.34105,-0.34105 0.80628,0.53293 0.91937,1.72713 0.10171,1.07398 0.007,1.25025 -0.72688,1.35401 -0.80802,0.11423 -0.83352,0.055 -0.60121,-1.39786 z m 6.23312,0.52544 c -0.40214,-0.51123 -0.73116,-1.11978 -0.73116,-1.35231 0,-0.89101 0.51813,-0.87377 1.24797,0.0415 0.64217,0.80536 1.09468,0.9769 2.92638,1.1094 2.0605,0.14904 2.21714,0.10277 3.19468,-0.94369 0.56537,-0.60523 1.123,-1.10041 1.23918,-1.10041 0.55305,0 0.11877,1.72777 -0.60525,2.40795 -0.69979,0.65743 -1.22553,0.76705 -3.67856,0.76705 -2.67176,0 -2.9107,-0.0618 -3.59324,-0.92952 z"
         id="path621921" /></g></g></svg>
